<?xml version="1.0"?>
<svg xmlns="http://www.w3.org/2000/svg" height="512px" viewBox="0 0 32 32" width="512px" class=""><g><link xmlns="" type="text/css" rel="stylesheet" id="dark-mode-general-link"/><link xmlns="" type="text/css" rel="stylesheet" id="dark-mode-custom-link"/><style xmlns="" type="text/css" id="dark-mode-custom-style"/><g id="Area"><rect fill="#31b576" height="28" rx="4" width="28" x="2" y="2" data-original="#31B576" class="" style="fill:#B0CDFF" data-old_color="#31b576"/><path d="m11.0005 30 4.0295-20.1338 14.97 2.1411v13.9927a4.0042 4.0042 0 0 1 -4 4z" fill="#4ed195" data-original="#4ED195" class="" style="fill:#C3D9FF" data-old_color="#4ed195"/><path d="m18.2725 22.1274a5.1755 5.1755 0 0 1 -1.1358-3.4531 4.9125 4.9125 0 0 1 4.3184-4.6474c.1767-.0171.3613-.0259.5449-.0259s.3672.0088.5469.0263a4.9117 4.9117 0 0 1 4.3164 4.647 5.1776 5.1776 0 0 1 -1.1358 3.4536l-3.7275 4.8721z" fill="#fb5968" data-original="#FB5968" class=""/><path d="m2 8.0024v-2.0024a4.0045 4.0045 0 0 1 4-4h20a4.0042 4.0042 0 0 1 4 4v5.9971z" fill="#6ceab4" data-original="#6CEAB4" class="" style="fill:#D7E6FF" data-old_color="#6ceab4"/><g fill="#302b38"><path d="m26 1h-20a5.0059 5.0059 0 0 0 -5 5v20a5.0059 5.0059 0 0 0 5 5h20a5.0059 5.0059 0 0 0 5-5v-20a5.0059 5.0059 0 0 0 -5-5zm-20 2h20a3.0033 3.0033 0 0 1 3 3v4.8472l-26-3.7143v-1.1329a3.0033 3.0033 0 0 1 3-3zm-3 23v-16.8472l10.84 1.5486-3.66 18.2986h-4.18a3.0033 3.0033 0 0 1 -3-3zm23 3h-13.78l3.6032-18.0153 13.1768 1.8824v13.1329a3.0033 3.0033 0 0 1 -3 3z" data-original="#302B38" class="active-path" style="fill:#9CC1FF" data-old_color="#302B38"/><path d="m22.6455 13.0322a6.64 6.64 0 0 0 -1.292 0 5.91 5.91 0 0 0 -5.2143 5.5738 6.1659 6.1659 0 0 0 1.3393 4.1289l3.7276 4.8725a.999.999 0 0 0 1.5878 0l3.7276-4.8725h.001a6.1732 6.1732 0 0 0 1.3388-4.1289 5.91 5.91 0 0 0 -5.2158-5.5738zm2.2871 8.4878-2.9326 3.834-2.9326-3.834a4.1683 4.1683 0 0 1 -.9326-2.7773 3.9257 3.9257 0 0 1 3.4209-3.72 4.2785 4.2785 0 0 1 .4443-.0227 4.3912 4.3912 0 0 1 .4434.022 3.9266 3.9266 0 0 1 3.4218 3.7207 4.1683 4.1683 0 0 1 -.9326 2.7773z" data-original="#302B38" class="active-path" style="fill:#9CC1FF" data-old_color="#302B38"/><circle cx="22" cy="19" r="2" data-original="#302B38" class="active-path" style="fill:#9CC1FF" data-old_color="#302B38"/></g></g></g> </svg>
