<?xml version="1.0" encoding="utf-8"?>
<!-- Generator: Adobe Illustrator 25.4.1, SVG Export Plug-In . SVG Version: 6.00 Build 0)  -->
<svg version="1.1" id="Layer_1" xmlns="http://www.w3.org/2000/svg" xmlns:xlink="http://www.w3.org/1999/xlink" x="0px" y="0px"
	 viewBox="0 0 30 30" style="enable-background:new 0 0 30 30;" xml:space="preserve">
<style type="text/css">
	.st0{clip-path:url(#SVGID_00000092441630656559431750000004756215170158243254_);}
</style>
<g>
	<defs>
		<rect id="SVGID_1_" y="0" width="30" height="30"/>
	</defs>
	<clipPath id="SVGID_00000080917983035927521010000007388805324218298498_">
		<use xlink:href="#SVGID_1_"  style="overflow:visible;"/>
	</clipPath>
	<path id="Path_5230" style="clip-path:url(#SVGID_00000080917983035927521010000007388805324218298498_);" d="M15,16
		c-0.1,0.1-0.2,0.2-0.2,0.4l0,3.8c0,0.2,0.2,0.4,0.4,0.4c0.1,0,0.1,0,0.2-0.1l3.1-1.8c0.2-0.1,0.3-0.4,0.1-0.6
		c0-0.1-0.1-0.1-0.1-0.1L15.5,16C15.3,15.9,15.2,15.9,15,16z M17.5,18.3l-1.8,1.1l0-2.3L17.5,18.3z"/>
	<path id="Path_5231" style="clip-path:url(#SVGID_00000080917983035927521010000007388805324218298498_);" d="M18.5,11.2l-3.1-1.9
		c-0.2-0.1-0.5-0.1-0.6,0.1c0,0.1-0.1,0.1-0.1,0.2l0,3.8c0,0.2,0.2,0.4,0.4,0.4c0.1,0,0.1,0,0.2-0.1l3.1-1.8
		c0.2-0.1,0.3-0.4,0.1-0.6C18.6,11.3,18.5,11.2,18.5,11.2z M15.6,12.6l0-2.3l1.8,1.2L15.6,12.6z"/>
	<path id="Path_5232" style="clip-path:url(#SVGID_00000080917983035927521010000007388805324218298498_);" d="M21.6,11.6
		c0-0.5-0.3-1-0.7-1.3l-5.6-3.5c-0.7-0.5-1.7-0.2-2.1,0.5c-0.2,0.3-0.2,0.5-0.2,0.8l0,4.1c-0.7-0.5-1.5-0.9-2.2-1.2
		c-0.8-0.3-1.7,0.2-2,1c-0.3,0.7,0.1,1.6,0.8,1.9c0.1,0.1,0.6,0.3,1.9,1.1c-1.3,0.8-1.8,1-1.9,1.1c-0.8,0.3-1.1,1.3-0.8,2
		c0.3,0.7,1.2,1.1,1.9,0.8c0.8-0.4,1.5-0.8,2.2-1.2l0,4.1c0,0.9,0.7,1.6,1.5,1.6c0.3,0,0.6-0.1,0.8-0.2l5.6-3.5
		c0.7-0.5,0.9-1.4,0.5-2.1c-0.1-0.2-0.3-0.4-0.5-0.5l0,0l-3.4-2l3.4-2C21.3,12.6,21.6,12.1,21.6,11.6L21.6,11.6z M20.4,12.1
		c-1.6,0.9-2.9,1.7-4,2.4c-0.2,0.1-0.3,0.4-0.1,0.6c0,0.1,0.1,0.1,0.1,0.1c1.1,0.7,2.4,1.4,4,2.4c0.3,0.2,0.4,0.6,0.2,1
		c-0.1,0.1-0.1,0.2-0.2,0.2l-5.6,3.5c-0.2,0.1-0.5,0.1-0.7,0c-0.2-0.1-0.4-0.4-0.4-0.6l0-4.9c0-0.2-0.2-0.4-0.4-0.4
		c-0.1,0-0.2,0-0.2,0.1c-2.2,1.3-2.6,1.5-2.7,1.6C10,18.2,9.6,18,9.5,17.6c-0.1-0.3,0-0.7,0.4-0.9l0,0c0.2-0.1,1.1-0.6,2.6-1.5
		c0.2-0.1,0.3-0.4,0.1-0.6c0-0.1-0.1-0.1-0.1-0.1c-1.5-0.9-2.4-1.4-2.6-1.5l0,0c-0.4-0.2-0.5-0.6-0.3-0.9c0.1-0.3,0.5-0.5,0.9-0.4
		c0.1,0,0.5,0.2,2.7,1.6c0.2,0.1,0.5,0.1,0.6-0.2c0-0.1,0.1-0.1,0.1-0.2l0-4.9c0-0.4,0.3-0.7,0.7-0.7c0.1,0,0.3,0,0.4,0.1l5.6,3.5
		c0.3,0.2,0.4,0.6,0.2,1C20.6,12,20.5,12.1,20.4,12.1L20.4,12.1z"/>
	<path id="Path_5233" style="clip-path:url(#SVGID_00000080917983035927521010000007388805324218298498_);" d="M28.8,10
		c-0.5-1.5-1.3-2.9-2.3-4.2c0.3-1.3-0.6-2.6-1.9-2.9c-0.4-0.1-0.7-0.1-1.1,0c-5-3.4-11.5-3.4-16.5,0C6.7,3.1,6.6,3.3,6.7,3.5
		c0.1,0.2,0.4,0.2,0.6,0.1c4.5-3.1,10.5-3.2,15.2-0.3c-0.4,0.3-0.7,0.7-0.8,1.2C16,0.9,8.4,2.6,4.8,8.3c-3.1,4.8-2.4,11.2,1.7,15.2
		c4.7,4.7,12.4,4.8,17.2,0.1c0.2-0.2,0.2-0.4,0-0.6s-0.4-0.2-0.6,0l0,0c-4.5,4.4-11.7,4.3-16.1-0.2S2.6,11.1,7.1,6.7
		c3.9-3.8,9.9-4.3,14.4-1.3c0.1,1.3,1.2,2.3,2.5,2.3h0c1.6,2,2.5,4.5,2.5,7.1c0,2.5-0.8,5-2.4,7c-0.1,0.2-0.1,0.5,0.1,0.6
		s0.5,0.1,0.6-0.1c0,0,0,0,0,0c1.7-2.1,2.6-4.8,2.6-7.5c0-2.6-0.8-5.2-2.4-7.3c0.4-0.2,0.8-0.5,1.1-0.9c4.5,6,3.3,14.6-2.8,19.1
		c-2.4,1.8-5.2,2.7-8.2,2.7c-7.5,0-13.7-6.1-13.7-13.7C1.4,11,3.1,7.3,6,4.7c0.2-0.2,0.2-0.4,0-0.6c-0.2-0.2-0.4-0.2-0.6,0
		c-6,5.3-6.5,14.5-1.1,20.5s14.5,6.5,20.5,1.1C29.2,21.7,30.8,15.5,28.8,10z M24,6.9c-0.9,0-1.6-0.7-1.6-1.6c0-0.9,0.7-1.6,1.6-1.6
		c0.9,0,1.6,0.7,1.6,1.6C25.6,6.2,24.9,6.9,24,6.9z"/>
</g>
</svg>
