<svg height="432.77" viewBox="0 0 475 432.77" width="475" xmlns="http://www.w3.org/2000/svg"><path d="m105 146.65a45 45 0 0 1 -27.3 41.35 174.17 174.17 0 0 1 25.83-52.82 45 45 0 0 1 1.47 11.47z" fill="#2f6cd4"/><path d="m149.38 237.3v146.15a174.85 174.85 0 0 1 -78.71-146.15z" fill="#09152a"/><path d="m149.38 91.16v146.14h-78.71a176.22 176.22 0 0 1 3-32.21 60 60 0 0 0 40.85-83.6 175.76 175.76 0 0 1 34.86-30.33z" fill="#2f6cd4"/><path d="m330.29 84.08v153.22h-180.91v-146.14a174 174 0 0 1 37.36-18.68q4.75-1.71 9.64-3.13a175.46 175.46 0 0 1 130.09 12.65c1.29.7 2.53 1.38 3.82 2.08z" fill="#132b55"/><path d="m420.67 237.3h-90.38v-153.22c2.27 1.26 4.51 2.56 6.72 3.93a174.87 174.87 0 0 1 83.66 149.29z" fill="#09152a"/><path d="m420.67 237.3a175 175 0 0 1 -90.38 153.22v-153.22z" fill="#2f6cd4"/><path d="m330.29 237.3v153.22a173.9 173.9 0 0 1 -72.61 21.37q-6 .41-12 .41a174.2 174.2 0 0 1 -96.29-28.85v-146.15z" fill="#132b55"/><path d="m60 86.65a60 60 0 1 0 13.63 118.44q1.62-8.68 4.07-17.06a45 45 0 1 1 25.83-52.82 172.28 172.28 0 0 1 11-13.72 60 60 0 0 0 -54.53-34.84z" fill="#d4d4f4"/><path d="m120 146.65a60 60 0 0 1 -46.37 58.44q1.62-8.68 4.07-17.06a45 45 0 0 0 25.83-52.82 172.28 172.28 0 0 1 11-13.72 59.78 59.78 0 0 1 5.47 25.16z" fill="#09152a"/><g fill="#003677"><path d="m360.25 394.8a17.5 17.5 0 1 0 17.5 17.5 17.5 17.5 0 0 0 -17.5-17.5zm0 30a12.5 12.5 0 1 1 12.5-12.5 12.49 12.49 0 0 1 -12.5 12.5z" opacity=".4"/><path d="m54.1 369.49a17.5 17.5 0 1 0 17.5 17.51 17.5 17.5 0 0 0 -17.5-17.51zm0 30a12.5 12.5 0 1 1 12.5-12.49 12.49 12.49 0 0 1 -12.5 12.49z" opacity=".4"/><path d="m365.75 0a28.75 28.75 0 1 0 28.75 28.74 28.74 28.74 0 0 0 -28.75-28.74zm0 49.27a20.53 20.53 0 1 1 20.53-20.53 20.52 20.52 0 0 1 -20.53 20.53z" opacity=".4"/><path d="m116.91 44.8a11.64 11.64 0 1 0 11.64 11.63 11.63 11.63 0 0 0 -11.64-11.63zm0 19.94a8.31 8.31 0 1 1 8.31-8.31 8.3 8.3 0 0 1 -8.31 8.31z" opacity=".4"/></g><path d="m370.19 125.07h70v70h-70z" fill="#92beff" opacity=".6"/><path d="m346.11 321.81h63.7a65.18 65.18 0 0 1 65.19 65.19 0 0 0 0 1 0 0h-63.7a65.18 65.18 0 0 1 -65.18-65.18 0 0 0 0 1 0 0z" fill="#09152a" opacity=".9"/><path d="m41.6 285.58h58.16v58.08h-58.16z" fill="#132b55"/><path d="m440.19 96.03h29.08v29.04h-29.08z" fill="#2f6cd4"/><g fill="#020212" opacity=".8"><path d="m337 88v248a19.58 19.58 0 0 1 -19.57 19.58h-111.12a19.58 19.58 0 0 1 -19.57-19.58v-263.52q4.75-1.71 9.64-3.13a175.46 175.46 0 0 1 130.09 12.65c1.29.66 2.56 1.34 3.82 2 2.27 1.34 4.51 2.64 6.71 4z"/><path d="m326.47 82v251.7a13.27 13.27 0 0 1 -13.27 13.3h-103.56a13.26 13.26 0 0 1 -13.26-13.26v-264.39a175.46 175.46 0 0 1 130.09 12.65z"/><path d="m318.6 355.82c-11.6 17.59-42.7 42.36-60.92 56.07q-6 .41-12 .41a174.2 174.2 0 0 1 -96.29-28.85v-109.31c4.46-11.8 9.76-24.5 15.17-36.84 7.95-18.11 16.13-35.44 22.19-48 5.73-11.84 9.57-19.44 9.57-19.44h.07c23.77 14.3 17.51 36.4 17.51 36.4a136.43 136.43 0 0 0 -11.31 31c-3.67 15.8-4.91 35.18 3.51 52 17.9 35.83 22.46 53.74 22.46 53.74.07 1.38.11 2.73.13 4 .07 3.07 0 5.93-.14 8.6-1.34 23.47-9.92 31.87-10.22 32.15 20.32-6.85 28.5-25.74 30.69-31.93z"/></g><rect fill="#3a83ff" height="309.4" rx="19.57" width="150.28" x="169.93" y="31.73"/><rect fill="#fff" height="292.09" rx="13.26" width="130.09" x="179.57" y="40.45"/><rect fill="#3a83ff" height="11.92" rx="5.96" width="75.21" x="207.85" y="35"/><rect fill="#3a83ff" height="27.92" rx="13.96" width="101.12" x="192.44" y="285.08"/><path d="m183.43 209.51h58.01v4.82h-58.01z" fill="#a6c7ff"/><path d="m183.43 221.06h88.62v4.82h-88.62z" fill="#a6c7ff"/><path d="m301.79 341.36c-16.79 25.53-74.79 66.19-74.79 66.19l-18.65 25.22h-125.16l41.28-73.61-3.47-52.42c-4.82-26.29 58.47-151.33 58.47-151.33 23.85 14.3 17.58 36.44 17.58 36.44s-25.68 47.24-7.8 83 22.47 53.65 22.47 53.65c1.66 33.15-9.89 44.46-10.23 44.78 20.32-6.85 28.5-25.74 30.69-31.93z" fill="#d2e3ff"/><path d="m233.44 108.37v8.21h-8.21v-8.21zm4-4h-16.21v16.21h16.21z" opacity=".79"/><path d="m264.23 108.37v8.21h-8.23v-8.21h8.21m4-4h-16.21v16.21h16.21z" opacity=".79"/><path d="m264.23 139.16v8.2h-8.23v-8.2h8.21m4-4h-16.21v16.2h16.21z" opacity=".79"/><path d="m233.44 139.16v8.2h-8.21v-8.2zm4-4h-16.21v16.2h16.21z" opacity=".79"/><g opacity=".79"><path d="m216.18 94.89a0 0 0 0 1 0 0v11.69a0 0 0 0 1 0 0h-4.36a0 0 0 0 1 0 0v-7.33a4.36 4.36 0 0 1 4.36-4.36z"/><path d="m215.49 91.22h4.36a0 0 0 0 1 0 0v11.69a0 0 0 0 1 0 0 4.36 4.36 0 0 1 -4.36-4.36v-7.33a0 0 0 0 1 0 0z" transform="matrix(0 1 -1 0 314.74 -120.6)"/></g><g opacity=".79"><path d="m273.93 91.37a0 0 0 0 1 0 0v11.69a0 0 0 0 1 0 0h-4.36a0 0 0 0 1 0 0v-7.34a4.36 4.36 0 0 1 4.36-4.35z" transform="matrix(0 1 -1 0 368.97 -174.54)"/><path d="m273.25 95h4.36a0 0 0 0 1 0 0v11.69a0 0 0 0 1 0 0 4.36 4.36 0 0 1 -4.36-4.36v-7.33a0 0 0 0 1 0 0z" transform="matrix(-1 0 0 -1 550.85 201.77)"/></g><g opacity=".79"><path d="m211.85 149.06h4.36a0 0 0 0 1 0 0v11.69a0 0 0 0 1 0 0 4.36 4.36 0 0 1 -4.36-4.36v-7.34a0 0 0 0 1 0 .01z"/><path d="m219.88 152.73a0 0 0 0 1 0 0v11.69a0 0 0 0 1 0 0h-4.36a0 0 0 0 1 0 0v-7.34a4.36 4.36 0 0 1 4.36-4.35z" transform="matrix(0 -1 1 0 59.12 376.28)"/></g><g opacity=".79"><path d="m269.52 152.77h4.36a0 0 0 0 1 0 0v11.69a0 0 0 0 1 0 0 4.36 4.36 0 0 1 -4.36-4.36v-7.34a0 0 0 0 1 0 .01z" transform="matrix(0 -1 1 0 113.08 430.32)"/><path d="m277.54 149.1a0 0 0 0 1 0 0v11.7a0 0 0 0 1 0 0h-4.36a0 0 0 0 1 0 0v-7.34a4.36 4.36 0 0 1 4.36-4.36z" transform="matrix(-1 0 0 -1 550.73 309.9)"/></g><path d="m242.44 104.37h4.59v46.99h-4.59z" opacity=".79"/><path d="m242.44 104.37h4.59v46.99h-4.59z" opacity=".79" transform="matrix(0 -1 1 0 116.86 372.6)"/></svg>