<svg enable-background="new 0 0 512 512" height="512" viewBox="0 0 512 512" width="512" xmlns="http://www.w3.org/2000/svg"><path d="m351.591 321.583c-16.542 0-30 13.458-30 30s13.458 30 30 30 30-13.458 30-30-13.458-30-30-30zm0 40c-5.514 0-10-4.486-10-10s4.486-10 10-10 10 4.486 10 10-4.486 10-10 10z"/><path d="m482 321.583c-13.036 0-24.152 8.361-28.28 20h-12.276c-1.928-17.445-8.839-33.409-19.276-46.434l8.71-8.711c4.076 1.941 8.5 2.917 12.926 2.917 7.682 0 15.365-2.924 21.213-8.772 11.697-11.697 11.697-30.729 0-42.427s-30.729-11.696-42.427 0c-9.218 9.218-11.165 22.99-5.854 34.139l-8.71 8.711c-13.026-10.437-28.989-17.348-46.435-19.276v-12.276c11.639-4.128 20-15.243 20-28.28 0-13.332-8.744-24.655-20.796-28.55l7.896-7.896 8.227 8.227c1.953 1.952 4.512 2.929 7.071 2.929s5.119-.977 7.071-2.929c3.905-3.905 3.905-10.237 0-14.143l-31.028-31.028 44.212-44.211 1.622 1.622c5.954 5.953 13.774 8.93 21.594 8.93 7.821 0 15.642-2.978 21.595-8.931 5.768-5.767 8.945-13.436 8.945-21.594s-3.177-15.827-8.945-21.595l-53.067-53.068c-11.908-11.906-31.283-11.906-43.19 0-11.907 11.908-11.907 31.282 0 43.19l1.623 1.623-44.212 44.212-31.029-31.028c-3.905-3.904-10.237-3.904-14.143 0-3.905 3.905-3.905 10.237 0 14.143l8.227 8.227-48.923 48.923c-3.905 3.905-3.905 10.237 0 14.143 3.905 3.904 10.237 3.904 14.143 0l48.923-48.923 67.141 67.141-71.004 71.004c-.884-1.2-1.867-2.349-2.952-3.434-11.697-11.697-30.729-11.697-42.427 0-11.697 11.697-11.697 30.729 0 42.427 1.085 1.085 2.234 2.069 3.434 2.952l-37.848 37.848-67.141-67.142 38.248-38.248c3.905-3.905 3.906-10.237 0-14.143-3.906-3.903-10.237-3.904-14.143 0l-82.188 82.188c-13.397 13.398-13.864 34.898-1.411 48.867l-32.907 45.815c-2.857 3.979-2.413 9.441 1.051 12.905l3.481 3.481-45.812 45.813c-3.905 3.905-3.905 10.237 0 14.143 1.953 1.952 4.512 2.929 7.071 2.929s5.119-.977 7.071-2.929l45.813-45.812 3.481 3.481c1.937 1.936 4.497 2.929 7.074 2.929 2.033 0 4.076-.618 5.831-1.878l45.816-32.908c6.529 5.829 14.86 9.021 23.683 9.021 9.513 0 18.457-3.705 25.184-10.432l18.679-18.679c3.895 12.053 15.218 20.797 28.55 20.797 13.036 0 24.152-8.361 28.28-20h12.276c1.929 17.445 8.839 33.408 19.276 46.434l-8.711 8.711c-11.149-5.311-24.921-3.363-34.139 5.855-11.697 11.697-11.697 30.729 0 42.427 5.849 5.849 13.531 8.772 21.213 8.772s15.365-2.924 21.213-8.772c9.218-9.218 11.166-22.99 5.855-34.139l8.711-8.711c13.026 10.437 28.989 17.348 46.435 19.277v12.276c-11.639 4.128-20 15.244-20 28.28 0 16.542 13.458 30 30 30s30-13.458 30-30c0-13.036-8.361-24.152-20-28.28v-12.276c17.445-1.929 33.409-8.84 46.435-19.276l8.71 8.71c-5.311 11.149-3.363 24.921 5.854 34.139 5.849 5.849 13.531 8.772 21.214 8.772 7.682 0 15.365-2.924 21.213-8.772 11.697-11.697 11.697-30.729 0-42.427-9.218-9.218-22.99-11.166-34.139-5.854l-8.71-8.711c10.437-13.026 17.348-28.989 19.276-46.435h12.276c4.128 11.639 15.243 20 28.28 20 16.542 0 30-13.458 30-30s-13.458-30-30-30zm-115.061-298.503c2.055-2.055 4.754-3.082 7.453-3.082s5.398 1.027 7.453 3.082l53.068 53.068c1.991 1.99 3.087 4.637 3.087 7.452s-1.096 5.463-3.087 7.453c-4.11 4.109-10.797 4.109-14.906 0l-53.067-53.068c-4.11-4.11-4.11-10.796-.001-14.905zm1.623 44.813 21.538 21.538-44.212 44.211-21.539-21.538zm-16.971 354.1c-38.824 0-70.409-31.585-70.409-70.409s31.585-70.409 70.409-70.409 70.409 31.584 70.409 70.408-31.586 70.41-70.409 70.41zm85.142-169.694c1.889-1.889 4.4-2.929 7.071-2.929s5.183 1.04 7.071 2.929c1.889 1.889 2.929 4.399 2.929 7.071 0 2.671-1.04 5.182-2.929 7.07-1.889 1.889-4.4 2.93-7.071 2.93s-5.182-1.041-7.071-2.93c-3.899-3.898-3.899-10.242 0-14.141zm-85.142-21.125c-5.514 0-10-4.486-10-10s4.486-10 10-10 10 4.486 10 10-4.486 10-10 10zm-10 18.28v12.276c-17.445 1.928-33.409 8.84-46.435 19.276l-8.711-8.711c1.188-2.494 2.01-5.117 2.471-7.793l34.125-34.125c2.871 8.884 9.777 15.966 18.55 19.077zm-89.284 2.845c1.889-1.889 4.4-2.929 7.071-2.929s5.182 1.04 7.071 2.929 2.929 4.399 2.929 7.071c0 2.671-1.04 5.182-2.929 7.07-1.889 1.889-4.4 2.93-7.071 2.93s-5.182-1.041-7.071-2.93-2.929-4.399-2.929-7.07c-.001-2.671 1.039-5.182 2.929-7.071zm-177.806 140.285-9.093-9.094 26.002-36.2 19.293 19.292zm85.309-27.261c-2.949 2.95-6.871 4.574-11.042 4.574-4.17 0-8.092-1.624-11.041-4.574l-45.057-45.058c-6.088-6.088-6.088-15.995 0-22.084l29.795-29.796 67.141 67.142zm104.699-76.414c2.676-.461 5.3-1.283 7.793-2.47l8.711 8.711c-10.437 13.026-17.348 28.989-19.276 46.434h-12.276c-3.112-8.773-10.193-15.679-19.077-18.55zm-43.327 72.674c-5.514 0-10-4.486-10-10s4.486-10 10-10 10 4.486 10 10-4.486 10-10 10zm45.266 89.285c-1.889 1.889-4.4 2.929-7.071 2.929s-5.182-1.04-7.071-2.929-2.929-4.399-2.929-7.071c0-2.671 1.04-5.182 2.929-7.07 1.889-1.889 4.4-2.93 7.071-2.93s5.182 1.041 7.071 2.93 2.929 4.399 2.929 7.07-1.04 5.182-2.929 7.071zm85.143 41.125c-5.514 0-10-4.486-10-10s4.486-10 10-10 10 4.486 10 10-4.486 10-10 10zm99.284-55.267c1.889 1.889 2.929 4.399 2.929 7.07 0 2.672-1.04 5.183-2.929 7.071-1.889 1.889-4.4 2.929-7.071 2.929s-5.182-1.04-7.071-2.929c-3.899-3.898-3.899-10.243 0-14.142 1.889-1.889 4.4-2.93 7.071-2.93 2.671.001 5.182 1.042 7.071 2.931zm31.125-75.143c-5.514 0-10-4.486-10-10s4.486-10 10-10 10 4.486 10 10-4.486 10-10 10z"/><circle cx="199.599" cy="177.11" r="10"/></svg>