<svg enable-background="new 0 0 512 512" viewBox="0 0 512 512" xmlns="http://www.w3.org/2000/svg"><g fill="#fff"><path d="m351.6 321.6c-16.5 0-30 13.5-30 30s13.5 30 30 30 30-13.5 30-30-13.5-30-30-30zm0 40c-5.5 0-10-4.5-10-10s4.5-10 10-10 10 4.5 10 10-4.5 10-10 10z"/><path d="m482 321.6c-13 0-24.2 8.4-28.3 20h-12.3c-1.9-17.4-8.8-33.4-19.3-46.4l8.7-8.7c4.1 1.9 8.5 2.9 12.9 2.9 7.7 0 15.4-2.9 21.2-8.8 11.7-11.7 11.7-30.7 0-42.4s-30.7-11.7-42.4 0c-9.2 9.2-11.2 23-5.9 34.1l-8.6 8.7c-13-10.4-29-17.3-46.4-19.3v-12.3c11.6-4.1 20-15.2 20-28.3 0-13.3-8.7-24.7-20.8-28.6l7.9-7.9 8.2 8.2c2 2 4.5 2.9 7.1 2.9s5.1-1 7.1-2.9c3.9-3.9 3.9-10.2 0-14.1l-31-31 44.2-44.2 1.6 1.6c6 6 13.8 8.9 21.6 8.9s15.6-3 21.6-8.9c5.8-5.8 8.9-13.4 8.9-21.6s-3.2-15.8-8.9-21.6l-53.1-53c-11.9-11.9-31.3-11.9-43.2 0s-11.9 31.3 0 43.2l1.6 1.6-44.2 44.3-31-31c-3.9-3.9-10.2-3.9-14.1 0s-3.9 10.2 0 14.1l8.2 8.2-48.9 48.9c-3.9 3.9-3.9 10.2 0 14.1s10.2 3.9 14.1 0l48.9-48.9 67.1 67.1-71 71c-.9-1.2-1.9-2.3-3-3.4-11.7-11.7-30.7-11.7-42.4 0s-11.7 30.7 0 42.4c1.1 1.1 2.2 2.1 3.4 3l-37.8 37.8-67.1-67.1 38.2-38.2c3.9-3.9 3.9-10.2 0-14.1s-10.2-3.9-14.1 0l-82.2 82.1c-13.4 13.4-13.9 34.9-1.4 48.9l-32.9 45.8c-2.9 4-2.4 9.4 1.1 12.9l3.5 3.5-45.9 45.8c-3.9 3.9-3.9 10.2 0 14.1 2 2 4.5 2.9 7.1 2.9s5.1-1 7.1-2.9l45.8-45.8 3.5 3.5c1.9 1.9 4.5 2.9 7.1 2.9 2 0 4.1-.6 5.8-1.9l45.8-32.9c6.5 5.8 14.9 9 23.7 9 9.5 0 18.5-3.7 25.2-10.4l18.7-18.7c3.9 12.1 15.2 20.8 28.6 20.8 13 0 24.2-8.4 28.3-20h12.3c1.9 17.4 8.8 33.4 19.3 46.4l-8.7 8.7c-11.1-5.3-24.9-3.4-34.1 5.9-11.7 11.7-11.7 30.7 0 42.4 5.8 5.8 13.5 8.8 21.2 8.8s15.4-2.9 21.2-8.8c9.2-9.2 11.2-23 5.9-34.1l8.7-8.7c13 10.4 29 17.3 46.4 19.3v12.3c-11.6 4.1-20 15.2-20 28.3 0 16.5 13.5 30 30 30s30-13.5 30-30c0-13-8.4-24.2-20-28.3v-12.3c17.4-1.9 33.4-8.8 46.4-19.3l8.7 8.7c-5.3 11.1-3.4 24.9 5.9 34.1 5.8 5.8 13.5 8.8 21.2 8.8s15.4-2.9 21.2-8.8c11.7-11.7 11.7-30.7 0-42.4-9.2-9.2-23-11.2-34.1-5.9l-8.7-8.7c10.4-13 17.3-29 19.3-46.4h12.3c4.1 11.6 15.2 20 28.3 20 16.5 0 30-13.5 30-30s-13.8-29.9-30.3-29.9zm-115.1-298.5c2.1-2.1 4.8-3.1 7.5-3.1s5.4 1 7.5 3.1l53.1 53.1c2 2 3.1 4.6 3.1 7.5s-1.1 5.5-3.1 7.5c-4.1 4.1-10.8 4.1-14.9 0l-53.2-53.2c-4.1-4.1-4.1-10.8 0-14.9zm1.7 44.8 21.5 21.5-44.2 44.2-21.5-21.5zm-17 354.1c-38.8 0-70.4-31.6-70.4-70.4s31.6-70.4 70.4-70.4 70.4 31.6 70.4 70.4-31.6 70.4-70.4 70.4zm85.1-169.7c1.9-1.9 4.4-2.9 7.1-2.9s5.2 1 7.1 2.9 2.9 4.4 2.9 7.1-1 5.2-2.9 7.1-4.4 2.9-7.1 2.9-5.2-1-7.1-2.9c-3.9-4-3.9-10.3 0-14.2zm-85.1-21.1c-5.5 0-10-4.5-10-10s4.5-10 10-10 10 4.5 10 10-4.5 10-10 10zm-10 18.3v12.3c-17.4 1.9-33.4 8.8-46.4 19.3l-8.7-8.7c1.2-2.5 2-5.1 2.5-7.8l34.1-34.1c2.8 8.8 9.7 15.8 18.5 19zm-89.3 2.8c1.9-1.9 4.4-2.9 7.1-2.9s5.2 1 7.1 2.9 2.9 4.4 2.9 7.1-1 5.2-2.9 7.1-4.4 2.9-7.1 2.9-5.2-1-7.1-2.9-2.9-4.4-2.9-7.1 1-5.2 2.9-7.1zm-177.8 140.3-9.1-9.1 26-36.2 19.3 19.3zm85.3-27.3c-2.9 3-6.9 4.6-11 4.6-4.2 0-8.1-1.6-11-4.6l-45.1-45.1c-6.1-6.1-6.1-16 0-22.1l29.8-29.8 67.1 67.1zm104.7-76.4c2.7-.5 5.3-1.3 7.8-2.5l8.7 8.7c-10.4 13-17.3 29-19.3 46.4h-12.3c-3.1-8.8-10.2-15.7-19.1-18.5zm-43.3 72.7c-5.5 0-10-4.5-10-10s4.5-10 10-10 10 4.5 10 10-4.5 10-10 10zm45.2 89.3c-1.9 1.9-4.4 2.9-7.1 2.9s-5.2-1-7.1-2.9-2.9-4.4-2.9-7.1 1-5.2 2.9-7.1 4.4-2.9 7.1-2.9 5.2 1 7.1 2.9 2.9 4.4 2.9 7.1-1 5.2-2.9 7.1zm85.2 41.1c-5.5 0-10-4.5-10-10s4.5-10 10-10 10 4.5 10 10-4.5 10-10 10zm99.3-55.3c1.9 1.9 2.9 4.4 2.9 7.1s-1 5.2-2.9 7.1-4.4 2.9-7.1 2.9-5.2-1-7.1-2.9c-3.9-3.9-3.9-10.2 0-14.1 1.9-1.9 4.4-2.9 7.1-2.9 2.7-.1 5.2.9 7.1 2.8zm31.1-75.1c-5.5 0-10-4.5-10-10s4.5-10 10-10 10 4.5 10 10-4.5 10-10 10z"/><circle cx="199.6" cy="177.1" r="10"/></g></svg>