<svg enable-background="new 0 0 512 512" viewBox="0 0 512 512" xmlns="http://www.w3.org/2000/svg"><g fill="#fff"><path d="m278.5 512h-45c-16.5 0-30-13.5-30-30 0-14 9.6-25.7 22.5-29.1v-12.4c0-2.8-2.1-5.3-4.9-5.9-24-4.7-46.4-13.9-66.7-27.6-2.4-1.6-5.7-1.4-7.7.6l-8.9 8.9c6.2 10.8 5.4 24.7-2.7 34.4-5.4 6.5-13.3 10.4-21.7 10.8s-16.6-2.8-22.5-8.8l-31.8-31.8c-5.7-5.7-8.8-13.2-8.8-21.2s3.1-15.5 8.8-21.2 13.2-8.8 21.2-8.8c5.4 0 10.7 1.4 15.2 4.1l8.8-8.8c2-2 2.3-5.2.6-7.7-13.7-20.3-23-42.7-27.6-66.7-.6-2.9-3-4.9-5.9-4.9h-12.3c-1.4 5.3-4.2 10.2-8.2 14.1-5.9 5.7-13.7 8.7-21.9 8.4-16.3-.5-29-13.9-29-30.4v-44.5c0-8.2 3.2-15.9 9.1-21.6s13.7-8.7 21.9-8.4c13.3.4 24.5 9.9 27.9 22.5h12.6c2.8 0 5.3-2.1 5.9-4.9 4.7-24 13.9-46.4 27.6-66.7 1.6-2.4 1.4-5.7-.6-7.7l-8.8-8.8c-4.6 2.7-9.8 4.1-15.2 4.1-8 0-15.5-3.1-21.2-8.8-11.7-11.7-11.7-30.7 0-42.4l31.8-31.8c11.7-11.7 30.7-11.7 42.4 0 5.7 5.7 8.8 13.2 8.8 21.2 0 5.4-1.4 10.7-4.1 15.2l8.8 8.8c2 2 5.2 2.3 7.7.6 20.3-13.7 42.7-23 66.7-27.6 2.9-.6 4.9-3 4.9-5.9v-12.2c-13.1-3.4-22.7-15.1-22.7-29.1 0-16.5 13.5-30 30-30h45c16.5 0 30 13.5 30 30 0 14-9.6 25.7-22.5 29.1v12.4c0 2.8 2.1 5.3 4.9 5.9 24 4.7 46.4 13.9 66.7 27.6 2.4 1.6 5.7 1.4 7.7-.6l8.8-8.8c-6.8-11.5-5.2-26.6 4.6-36.5 11.7-11.7 30.7-11.7 42.4 0l31.8 31.8c11.7 11.7 11.7 30.7 0 42.4-5.7 5.7-13.2 8.8-21.2 8.8-5.4 0-10.7-1.4-15.2-4.1l-8.8 8.8c-2 2-2.3 5.2-.6 7.7 13.7 20.3 23 42.7 27.6 66.7.6 2.9 3 4.9 5.9 4.9h12.6c3.2-12 13.6-21.3 26.2-22.4 8.4-.7 16.8 2.1 23 7.8s9.7 13.7 9.7 22.1v45c0 8.4-3.6 16.5-9.7 22.1-6.2 5.7-14.6 8.5-23 7.8-12.6-1.1-23-10.4-26.2-22.4h-12.6c-2.8 0-5.3 2.1-5.9 4.9-4.7 24-13.9 46.4-27.6 66.7-1.6 2.4-1.4 5.7.6 7.7l8.8 8.8c4.6-2.7 9.8-4.1 15.2-4.1 8 0 15.5 3.1 21.2 8.8s8.8 13.2 8.8 21.2-3.1 15.5-8.8 21.2l-31.8 31.8c-5.9 5.9-14.1 9.1-22.5 8.8-8.4-.4-16.3-4.3-21.7-10.7-8.1-9.7-8.9-23.6-2.7-34.4l-8.9-8.9c-2-2-5.2-2.3-7.7-.6-20.3 13.7-42.7 23-66.7 27.6-2.9.6-4.9 3-4.9 5.9v12.4c12.9 3.3 22.5 15.1 22.5 29.1 0 16.2-13.5 29.7-30 29.7zm-127.5-126c5.1 0 10.2 1.5 14.6 4.5 18 12.2 38 20.4 59.3 24.6 12.2 2.4 21.1 13.1 21.1 25.5v19c0 6.9-5.6 12.5-12.5 12.5-5.5 0-10 4.5-10 10s4.5 10 10 10h45c5.5 0 10-4.5 10-10s-4.5-10-10-10c-6.9 0-12.5-5.6-12.5-12.5v-19c0-12.4 8.9-23.1 21.1-25.5 21.3-4.1 41.3-12.4 59.3-24.6 10.3-7 24.2-5.7 33 3.1l13.8 13.8c4.7 4.7 4.7 12.3 0 17-3.8 3.8-4.2 9.9-1 13.8 1.8 2.2 4.4 3.5 7.3 3.6s5.5-.9 7.5-2.9l31.8-31.8c1.9-1.9 2.9-4.4 2.9-7.1s-1-5.2-2.9-7.1c-3.9-3.9-10.2-3.9-14.1 0l-.3.3c-4.7 4.7-12.3 4.7-17 0l-13.8-13.8c-8.8-8.8-10.1-22.6-3.1-33 12.2-18 20.4-38 24.6-59.3 2.4-12.2 13.1-21.1 25.5-21.1h19.4c6.6 0 12 5.4 12 12 0 5.4 4 10 9.1 10.4 2.9.3 5.6-.7 7.7-2.6s3.3-4.5 3.3-7.4v-45c0-2.8-1.2-5.5-3.3-7.4s-4.8-2.8-7.7-2.6c-5.1.4-9.1 5-9.1 10.4 0 6.6-5.4 12-12 12h-19.4c-12.4 0-23.1-8.9-25.5-21.1-4.1-21.3-12.4-41.3-24.6-59.3-7-10.3-5.7-24.2 3.1-33l13.4-13.4c4.9-4.9 12.8-4.9 17.7 0 3.9 3.9 10.2 3.9 14.1 0s3.9-10.2 0-14.1l-31.8-31.7c-3.9-3.9-10.2-3.9-14.1 0s-3.9 10.2 0 14.1c4.9 4.9 4.9 12.8 0 17.7l-13.4 13.4c-8.8 8.8-22.6 10.1-33 3.1-18-12.2-38-20.4-59.3-24.6-12.3-2.3-21.2-13-21.2-25.4v-19c0-6.9 5.6-12.5 12.5-12.5 5.5 0 10-4.5 10-10s-4.5-10-10-10h-45c-5.5 0-10 4.5-10 10s4.5 10 10 10c6.9 0 12.5 5.6 12.5 12.5v19c0 12.4-8.9 23.1-21.1 25.5-21.3 4.1-41.3 12.4-59.3 24.6-10.3 7-24.2 5.7-33-3.1l-13.4-13.5c-2.4-2.4-3.7-5.5-3.7-8.8s1.3-6.5 3.7-8.8c3.9-3.9 3.9-10.2 0-14.1s-10.2-3.9-14.1 0l-31.9 31.7c-3.9 3.9-3.9 10.2 0 14.1 1.9 1.9 4.4 2.9 7.1 2.9s5.2-1 7.1-2.9c4.9-4.9 12.8-4.9 17.7 0l13.4 13.4c8.8 8.8 10.1 22.6 3.1 33-12.2 18-20.4 38-24.6 59.3-2.4 12.3-13.1 21.2-25.5 21.2h-19.5c-6.6 0-12-5.4-12-12 0-5.6-4.3-10.3-9.6-10.5-2.7-.1-5.3.9-7.3 2.8s-3 4.5-3 7.2v44.5c0 5.6 4.3 10.3 9.6 10.5 2.8.1 5.3-.9 7.3-2.8s3.1-4.5 3.1-7.2c0-6.9 5.6-12.5 12.5-12.5h19c12.4 0 23.1 8.9 25.5 21.1 4.1 21.3 12.4 41.3 24.6 59.3 7 10.3 5.7 24.2-3.1 33l-13.8 13.8c-4.7 4.7-12.3 4.7-17 0l-.3-.3c-1.9-1.9-4.4-2.9-7.1-2.9s-5.2 1-7.1 2.9-2.9 4.4-2.9 7.1 1 5.2 2.9 7.1l31.8 31.8c2 2 4.7 3 7.5 2.9s5.4-1.4 7.3-3.6c3.3-3.9 2.9-10-1-13.8-4.7-4.7-4.7-12.3 0-17l13.8-13.8c4.9-5.1 11.6-7.6 18.3-7.6z"/><path d="m217.4 213.9c-23.2 0-42-18.8-42-42s18.8-42 42-42 42 18.8 42 42-18.9 42-42 42zm0-64c-12.1 0-22 9.9-22 22s9.9 22 22 22 22-9.9 22-22-9.9-22-22-22z"/><path d="m189 355.8c-20 0-36.3-16.3-36.3-36.3s16.3-36.3 36.3-36.3 36.3 16.3 36.3 36.3-16.3 36.3-36.3 36.3zm0-52.7c-9 0-16.3 7.3-16.3 16.3s7.3 16.3 16.3 16.3 16.3-7.3 16.3-16.3c0-8.9-7.3-16.3-16.3-16.3z"/><path d="m325.8 345.9c-31.3 0-57.7-23.4-61.3-54.5-.6-5.5 3.3-10.5 8.8-11.1s10.5 3.3 11.1 8.8c2.5 21 20.3 36.9 41.5 36.9 23 0 41.8-18.7 41.8-41.8 0-21.3-16-39.2-37.1-41.5-5.5-.6-9.4-5.5-8.8-11s5.6-9.4 11-8.8c31.3 3.5 54.9 29.8 54.9 61.4-.1 33.8-27.8 61.6-61.9 61.6z"/><path d="m313 181.9c-2.6 0-5.2-1.1-7.1-2.9s-2.9-4.4-2.9-7.1c0-2.6 1.1-5.2 2.9-7.1 1.9-1.9 4.4-2.9 7.1-2.9s5.2 1.1 7.1 2.9c1.9 1.9 2.9 4.4 2.9 7.1s-1.1 5.2-2.9 7.1c-1.9 1.8-4.5 2.9-7.1 2.9z"/><path d="m256 385c-2.6 0-5.2-1.1-7.1-2.9-1.9-1.9-2.9-4.4-2.9-7.1s1.1-5.2 2.9-7.1c1.9-1.9 4.4-2.9 7.1-2.9 2.6 0 5.2 1.1 7.1 2.9 1.9 1.9 2.9 4.4 2.9 7.1s-1.1 5.2-2.9 7.1c-1.9 1.8-4.5 2.9-7.1 2.9z"/><path d="m143.7 266.1c-2.6 0-5.2-1.1-7.1-2.9-1.9-1.9-2.9-4.4-2.9-7.1 0-2.6 1.1-5.2 2.9-7.1 1.9-1.9 4.4-2.9 7.1-2.9 2.6 0 5.2 1.1 7.1 2.9 1.9 1.9 2.9 4.4 2.9 7.1s-1.1 5.2-2.9 7.1c-1.9 1.9-4.5 2.9-7.1 2.9z"/><path d="m289.1 257.6c-2.6 0-5.2-1.1-7.1-2.9-1.9-1.9-2.9-4.4-2.9-7.1 0-2.6 1.1-5.2 2.9-7.1 1.9-1.9 4.4-2.9 7.1-2.9s5.2 1.1 7.1 2.9c1.9 1.9 2.9 4.4 2.9 7.1 0 2.6-1.1 5.2-2.9 7.1-1.9 1.8-4.4 2.9-7.1 2.9z"/></g></svg>