<svg enable-background="new 0 0 100 100" height="512" viewBox="0 0 100 100" width="512" xmlns="http://www.w3.org/2000/svg"><circle cx="50" cy="50" fill="#ea8953" r="48"/><path d="m98 50c0-.2511597-.0150757-.4987183-.0189209-.7489624l-26.7510986-26.7510376h-42.5v6.9500122h.0400391l-6.2700196 8.5299683v3.4400024c0 .9799805.4199829 1.8599854 1.0800171 2.4899902l2.3599854 2.3599854v24.8600464l-3.4400025 4.1099853v2.2600098l19.894043 19.894043c2.4779052.3946533 5.0169067.605957 7.605957.605957 26.5097046 0 48-21.4904175 48-48z" opacity=".1"/><path d="m22.5 75.242531h55v2.257466h-55z" fill="#3a556a"/><path d="m70.9600372 67.4220276h-41.9200763l-6.5399609 7.8205032h55z" fill="#64798a"/><path d="m25.937532 35.813351h48.124935v37.586758h-48.124935z" fill="#fcd462"/><path d="m29.375029 46.98888h15.385994v26.411224h-15.385994z" fill="#fff"/><path d="m30.441483 48.188641h13.253087v25.211464h-13.253087z" fill="#27a2db"/><path d="m48.293648 48.788521h22.395521v15.263614h-22.395521z" fill="#fff"/><g fill="#27a2db"><path d="m59.991196 49.788448h9.697754v6.13208h-9.697754z"/><path d="m49.293442 49.788448h9.697754v6.13208h-9.697754z"/><path d="m59.991196 56.920528h9.697754v6.131592h-9.697754z"/><path d="m49.293442 56.920528h9.697754v6.131592h-9.697754z"/></g><path d="m25.937532 35.813351h48.124935v16.071184h-48.124935z" opacity=".15"/><path d="m22.5000381 37.9794426v3.4374962c0 1.8984833 1.5390129 3.4374962 3.4374619 3.4374962 1.8985157 0 3.4375286-1.5390129 3.4375286-3.4374962v-3.4374962z" fill="#d5d6db"/><path d="m29.3750286 37.9794426v3.4374962c0 1.8984833 1.5390129 3.4374962 3.4374599 3.4374962 1.8985176 0 3.4375305-1.5390129 3.4375305-3.4374962v-3.4374962z" fill="#ce412d"/><path d="m36.2500191 37.9794426v3.4374962c0 1.8984833 1.5390129 3.4374962 3.4374619 3.4374962 1.8985176 0 3.4375305-1.5390129 3.4375305-3.4374962v-3.4374962z" fill="#d5d6db"/><path d="m43.1250114 37.9794426v3.4374962c0 1.8984833 1.5390129 3.4374962 3.437458 3.4374962 1.8985177 0 3.4375306-1.5390129 3.4375306-3.4374962v-3.4374962z" fill="#ce412d"/><path d="m50 37.9794426v3.4374962c0 1.8984833 1.5390129 3.4374962 3.4374619 3.4374962 1.8985176 0 3.4375305-1.5390129 3.4375305-3.4374962v-3.4374962z" fill="#d5d6db"/><path d="m56.8749924 37.9794426v3.4374962c0 1.8984833 1.5390129 3.4374962 3.437458 3.4374962 1.8985176 0 3.4375305-1.5390129 3.4375305-3.4374962v-3.4374962z" fill="#ce412d"/><path d="m63.7499809 37.9794426v3.4374962c0 1.8984833 1.5390129 3.4374962 3.4374657 3.4374962 1.8985138 0 3.4375229-1.5390129 3.4375229-3.4374962v-3.4374962z" fill="#d5d6db"/><path d="m70.6249695 37.9794426v3.4374962c0 1.8984833 1.5390167 3.4374962 3.4374619 3.4374962 1.8985214 0 3.4375305-1.5390129 3.4375305-3.4374962v-3.4374962z" fill="#ce412d"/><path d="m34.0754967 29.4525738h-5.3081703l-6.2672883 8.5268688h6.8749905z" fill="#ebf0f3"/><path d="m39.3836632 29.4525738h-5.3081665l-4.7004681 8.5268688h6.8749905z" fill="#e56353"/><path d="m44.6918297 29.4525738h-5.3081665l-3.1336441 8.5268688h6.8749885z" fill="#ebf0f3"/><path d="m50 29.4525738h-5.3081703l-1.5668221 8.5268688h6.8749924z" fill="#e56353"/><path d="m55.3081665 29.4525738h-5.3081665v8.5268688h6.8749886z" fill="#ebf0f3"/><path d="m60.6163368 29.4525738h-5.3081703l1.5668221 8.5268688h6.8749923z" fill="#e56353"/><path d="m65.9245071 29.4525738h-5.3081703l3.1336441 8.5268688h6.8749886z" fill="#ebf0f3"/><path d="m71.2326736 29.4525738h-5.3081665l4.7004624 8.5268688h6.8749924z" fill="#e56353"/><path d="m28.733469 22.5h42.499203v6.952573h-42.499203z" fill="#3a556a"/><path d="m47.507065 5.72668h4.952637v40.499023h-4.952637z" fill="#64798a" transform="matrix(0 1 -1 0 75.959572 -24.007191)"/></svg>