<svg viewBox="0 0 100 100" xmlns="http://www.w3.org/2000/svg"><circle cx="50" cy="50" fill="#ffce00" r="49.33"/><path d="m99.33 50a49.47 49.47 0 0 0 -2.49-15.52c-6.58-6.71-14.83-15-15.26-15.06l-.72 1.42-5.52-5.52-52.26 69 13.06 13a49.35 49.35 0 0 0 63.19-47.32z" fill="#ffa300"/><path d="m55.71 19.42h25.87v60.77h-25.87z" fill="#e9edf5"/><path d="m24.66 15.32h50.68v69h-50.68z" fill="#ff7045"/><path d="m53.27 15.32h22.07v69h-22.07z" fill="#de4726"/><path d="m23.08 15.32h9.78v69h-9.78z" fill="#de4726"/><circle cx="53.56" cy="38.6" fill="#fff" r="13.96"/><path d="m53.56 24.64h-.29v27.92h.29a14 14 0 0 0 0-27.92z" fill="#e9edf5"/><path d="m62.36 35.24h-5.44v-5.44h-6.73v5.44h-5.44v6.76h5.44v5.44h6.73v-5.44h5.44z" fill="#ff7045"/><path d="m56.92 35.24v-5.44h-3.65v17.61h3.65v-5.41h5.44v-6.76z" fill="#de4726"/><path d="m38.35 59.45h30.41v5.79h-30.41z" fill="#707789"/><path d="m53.27 59.45h15.49v5.79h-15.49z" fill="#555a66"/><path d="m38.35 69.81h30.41v5.78h-30.41z" fill="#707789"/><path d="m53.27 69.81h15.49v5.78h-15.49z" fill="#555a66"/></svg>