<svg id="Layer_1" data-name="Layer 1" xmlns="http://www.w3.org/2000/svg" viewBox="0 0 100 100"><defs><style>.cls-1{fill:#ffce00;}.cls-2{fill:#ffa300;}.cls-3{fill:#e9edf5;}.cls-4{fill:#ff7045;}.cls-5{fill:#de4726;}.cls-6{fill:#fff;}.cls-7{fill:#707789;}.cls-8{fill:#555a66;}</style></defs><circle class="cls-1" cx="50" cy="50" r="49.33"/><path class="cls-2" d="M99.33,50a49.47,49.47,0,0,0-2.49-15.52c-6.58-6.71-14.83-15-15.26-15.06l-.72,1.42-5.52-5.52-52.26,69,13.06,13A49.35,49.35,0,0,0,99.33,50Z"/><path class="cls-3" d="M55.71,19.42H81.58V80.19H55.71Z"/><path class="cls-4" d="M24.66,15.32H75.34v69H24.66Z"/><path class="cls-5" d="M53.27,15.32H75.34v69H53.27Z"/><path class="cls-5" d="M23.08,15.32h9.78v69H23.08Z"/><circle class="cls-6" cx="53.56" cy="38.6" r="13.96"/><path class="cls-3" d="M53.56,24.64h-.29V52.56h.29a14,14,0,0,0,0-27.92Z"/><path class="cls-4" d="M62.36,35.24H56.92V29.8H50.19v5.44H44.75V42h5.44v5.44h6.73V42h5.44Z"/><path class="cls-5" d="M56.92,35.24V29.8H53.27V47.41h3.65V42h5.44V35.24Z"/><path class="cls-7" d="M38.35,59.45H68.76v5.79H38.35Z"/><path class="cls-8" d="M53.27,59.45H68.76v5.79H53.27Z"/><path class="cls-7" d="M38.35,69.81H68.76v5.78H38.35Z"/><path class="cls-8" d="M53.27,69.81H68.76v5.78H53.27Z"/></svg>