<svg enable-background="new 0 0 140 140" height="512" viewBox="0 0 140 140" width="512" xmlns="http://www.w3.org/2000/svg"><circle cx="70" cy="70" fill="#de594e" r="64"/><path d="m101.465332 34.2046623c-6.1699829-6.4897442-14.6600342-10.7597637-24.0499878-11.6298809-.7600098-.0698242-1.5100098-.1298828-2.25-.1601562-15.4400024-.75-29.8800049 7.9501953-36.460022 21.9404278-.6599731 1.409668-1.1900024 2.7597656-1.5100098 3.9799805-1.1400146 4.2197266-1.1900024 8.6196289-.4599609 12.9199219.4099731 2.4199219-.3900146 3.5400429-.3900146 3.5400429l-7.4600201 11.659668c-.8999634 2-.4400024 3.3300781.3400269 4.1801758l.2099609.2099609 4.4000225 4.3999023c-.5800171 2.1201172.1400146 3.3603516.7999878 4l.1300049.1298828.6000366.6000977c-.3700562 1.4399414-.1700439 2.9604492.5099487 4.2900391.8699951 1.7299805.7800293 3.4799805.7800293 3.4799805-.960022 4.2001953-.3099976 6.5800781 1.0100098 7.8901367l.1900024.1801758 28.0354614 28.0395508c1.3600464.0864258 2.727417.1455078 4.1091919.1455078 35.3463135 0 64-28.6538086 64-64 0-1.1230469-.0302734-2.2392578-.0874023-3.3481445l-32.2872925-32.2871132z" opacity=".1"/><path d="m31.6846581 82.0467911c3.5742111.155365 2.3310165 2.6417465 2.3310165 2.6417465-1.3985558 3.8852081 1.3985596 5.1281357 1.3985596 5.1281357l-.0243759.0878601c-.4060936 1.4620438-.2046547 3.0092697.4808273 4.3630905.8743324 1.7261658.7867393 3.4748306.7867393 3.4748306-2.9527473 12.8980026 9.3240662 8.7026062 9.3240662 8.7026062 11.4999886-2.3310165 11.6553535 3.2632065 11.6553535 3.2632065v7.9220276h36.8301811v-9.1649475c-1.6340179-19.0981674 6.8379517-24.2429047 6.8379517-24.2429047 13.2090073-11.1889877 9.9458008-30.1483917 9.9458008-30.1483917-.043396-.2716217-.0884018-.5416374-.1355438-.8084373-2.9369431-16.6562462-16.8598251-29.1342316-33.7009048-30.693779-.7612915-.0701828-1.5107956-.1221485-2.2482452-.1580429-15.4374313-.7441483-29.8834686 7.9552441-36.4591751 21.9418831-.6629829 1.4106102-1.1869392 2.759613-1.5156174 3.9832497-1.1314888 4.2109375-1.1906891 8.6147423-.4559174 12.9130096.4141312 2.4210205-.3886795 3.5450096-.3886795 3.5450096l-7.4594173 11.6550827c-2.0202867 4.5066757 2.7973804 5.5947647 2.7973804 5.5947647z" fill="#ededed"/><path d="m88.6110916 49.595665h-2.196228c-.3349457-1.6293678-.9781036-3.1455383-1.862915-4.4885559l1.5554581-1.5555611c.1731491-.1731529.1731491-.4536591 0-.626812l-3.0750885-3.0754128c-.1731491-.1729355-.4537659-.1729355-.6269226 0l-1.5555573 1.5555611c-1.3430176-.8848114-2.8591919-1.5280724-4.4886703-1.8629074v-2.196228c0-.2447968-.1984711-.4432716-.4432678-.4432716h-4.3490602c-.2447968 0-.4432678.1984749-.4432678.4432716v2.196228c-1.6294785.3348351-3.1456528.978096-4.4886627 1.8629074l-1.5555649-1.5555611c-.1731567-.1729355-.4537735-.1729355-.6269226 0l-3.0751419 3.0754128c-.1730995.1729355-.1730995.4536591 0 .626812l1.5555611 1.5555611c-.8848076 1.3430176-1.528019 2.8591881-1.8629608 4.4885559h-2.196228c-.2447929 0-.4432716.1984787-.4432716.4432716v4.3491669c0 .2447968.1984787.4432716.4432716.4432716h2.196228c.3349419 1.6293678.9781532 3.1455383 1.8629608 4.4885559l-1.5556145 1.5555611c-.1730461.1731529-.1730461.4538765 0 .6270294l3.0751953 3.0751991c.1731491.1729355.4537659.1729355.6269226 0l1.5555649-1.5555649c1.3430099.8848114 2.8591843 1.5280762 4.4886627 1.8629074v2.196228c0 .2447968.1984711.4432755.4432678.4432755h4.7923279v-2.6395035c1.6294785-.3348312 3.1456528-.978096 4.4886703-1.8629074l1.5555573 1.5555649c.1731567.1729355.4537735.1729355.6269226 0l3.0751953-3.0751991c.1730423-.1731529.1730423-.4538765 0-.6270294l-1.5555649-1.5555611c.8848114-1.3430176 1.5279694-2.8591881 1.862915-4.4885559h2.196228c.2447891 0 .4432678-.1984749.4432678-.4432716v-4.3491669c.0000001-.2447929-.1984786-.4432716-.4432677-.4432716zm-14.8677215 8.7665138c-3.3958511 0-6.1487656-2.752697-6.1487656-6.1486588s2.7529144-6.1486588 6.1487656-6.1486588c3.3959045 0 6.148819 2.752697 6.148819 6.1486588s-2.7529145 6.1486588-6.148819 6.1486588z" fill="#4da0dc"/><path d="m102.7466431 45.2216072-1.103096-.4504128c.166008-.8869781.1538925-1.7804451-.0150452-2.6364708l1.1002808-.4623184c.1223984-.0512962.1799698-.1921997.1284561-.3147049l-.9135971-2.1752319c-.0515137-.1225052-.1924133-.1800804-.3149185-.1285667l-1.1002808.462101c-.4930496-.7196655-1.1225739-1.3538361-1.8723221-1.8561974l.4504166-1.1029854c.050209-.1229362-.0087662-.2634087-.1317062-.3136215l-2.1843262-.8919525c-.1229401-.0499992-.263298.008873-.3135147.1318092l-.4504166 1.1029854c-.8870773-.1660118-1.7804413-.1538887-2.636467.015152l-.4623184-1.1003876c-.0514069-.1222878-.1924133-.179863-.3148117-.1285667l-2.1751251.914032c-.1225052.0512962-.1800766.1921997-.1285629.3147049l.462204 1.1003876c-.7198792.4930534-1.3538361 1.1226807-1.8561935 1.8722153l-1.103096-.4504166c-.1229401-.0502129-.263298.0086594-.3135147.1315994l-.8919525 2.1845398c-.0502167.1229362.0087662.2631912.1317062.3134041l1.1029816.4504166c-.1659012.8869743-.1537781 1.7804451.015152 2.636467l-1.1003876.4623184c-.1223984.0512962-.1799698.1924171-.1285629.3149223l.9138107 2.1750183c.0515137.1225052.1924133.1800766.3149261.1285629l1.1002731-.462101c.4930573.719883 1.1225739 1.3538399 1.8723221 1.8562012l-.4504089 1.1029816c-.0502167.1229401.0087662.2634087.1317062.3136253l2.406929.9828568.5413208-1.3257027c.887085.1660118 1.7804413.1538925 2.636467-.0151482l.4622116 1.1003838c.0515137.1222916.1924133.179863.3149185.1285667l2.1751251-.9138145c.1225052-.0515137.1800842-.1924133.1285706-.3149223l-.4622116-1.1003838c.7198792-.4930534 1.3538361-1.1224632 1.8562012-1.8722153l1.1030884.4504128c.1229401.0502129.263298-.0086594.3135147-.131813l.8919525-2.1843224c.0502165-.1229402-.0087663-.2631951-.1316987-.313408zm-4.9159241-.4733581c-.6965027 1.7055588-2.6436081 2.5234871-4.3492737 1.8269806-1.7054443-.6965065-2.5235977-2.6436119-1.8270874-4.3491669s2.6437225-2.5234871 4.3491669-1.8269806c1.7056656.6965103 2.5237045 2.6436119 1.8271942 4.3491669z" fill="#d6b250"/><path d="m73.7435303 62.5357056c-5.6919632 0-10.322506-4.6305428-10.322506-10.3221855s4.6305428-10.3221817 10.322506-10.3221817c5.6915359 0 10.3220749 4.6305389 10.3220749 10.3221817s-4.630539 10.3221855-10.3220749 10.3221855zm0-18.4280129c-4.4699402 0-8.1061478 3.6362114-8.1061478 8.1058273s3.6362076 8.1058273 8.1061478 8.1058273c4.4695129 0 8.1057205-3.6362114 8.1057205-8.1058273s-3.6362076-8.1058273-8.1057205-8.1058273z" fill="#4288b9"/></svg>