<svg id="Layer_1" data-name="Layer 1" xmlns="http://www.w3.org/2000/svg" viewBox="0 0 100 100"><defs><style>.cls-1{fill:#b5f1f4;}.cls-2{fill:#84dbff;}.cls-3{fill:#fed8b2;}.cls-4{fill:#eabe96;}.cls-5{fill:#f4e3c3;}.cls-6{fill:#f9b54c;}.cls-7{fill:#f4a200;}.cls-8{fill:#59595b;}.cls-9{fill:#272525;}.cls-10{fill:#324a5e;}.cls-11{fill:#2b3b4e;}.cls-12{fill:#fd8469;}.cls-13{fill:#fc6f58;}.cls-14{fill:#935635;}.cls-15{fill:#804000;}.cls-16{fill:#b97850;}.cls-17{fill:#ffd15d;}.cls-18{fill:#ff6472;}.cls-19{fill:#c75163;}.cls-20{fill:#f1543f;}.cls-21{fill:#c1321f;}</style></defs><circle class="cls-1" cx="50" cy="50" r="49.33"/><path class="cls-2" d="M99.29,51.9,78.56,31.17,63.73,58.3,39.24,33.8,27.85,44,15.28,53.75,59.87,98.34A49.34,49.34,0,0,0,99.29,51.9Z"/><path class="cls-3" d="M74.09,62.87V58.7H66.58v4.17a.6.6,0,0,1-.6.6H60.8V77.85H79.87V63.47H74.69A.6.6,0,0,1,74.09,62.87Z"/><path class="cls-4" d="M79.87,63.47H74.69a.6.6,0,0,1-.6-.6V58.7H70.16V77.85h9.71V63.47Z"/><circle class="cls-3" cx="57.85" cy="49.97" r="3"/><circle class="cls-4" cx="82.18" cy="49.97" r="3"/><path class="cls-5" d="M70.35,62.48h-.67A11.33,11.33,0,0,1,58.35,51.15V40.8A11.33,11.33,0,0,1,69.68,29.47h.67A11.34,11.34,0,0,1,81.69,40.8V51.15A11.34,11.34,0,0,1,70.35,62.48Z"/><path class="cls-3" d="M70.35,29.47h-.19v33h.19A11.34,11.34,0,0,0,81.69,51.15V40.8A11.34,11.34,0,0,0,70.35,29.47Z"/><path class="cls-6" d="M80.46,33.3a12.31,12.31,0,0,0-10.08-5.25h-.73a12.3,12.3,0,0,0-12.3,12.31V50h1.8V44.89h0a44.81,44.81,0,0,0,15.59-4A28.68,28.68,0,0,0,80.57,46v4h2.12V40.36A12.27,12.27,0,0,0,80.46,33.3Z"/><path class="cls-7" d="M80.46,33.3a12.31,12.31,0,0,0-10.08-5.25h-.22v14.7a32.72,32.72,0,0,0,4.58-1.85A28.68,28.68,0,0,0,80.57,46v4h2.12V40.36A12.27,12.27,0,0,0,80.46,33.3Z"/><circle class="cls-8" cx="64.51" cy="48.64" r="1.17"/><circle class="cls-9" cx="75.52" cy="48.64" r="1.17"/><path class="cls-10" d="M89.41,79.67V72.19a8.72,8.72,0,0,0-8.72-8.72h-4c0,3.51-6.35,6.92-6.35,6.92S64,67,64,63.47H60a8.71,8.71,0,0,0-8.71,8.72V99.31A49.24,49.24,0,0,0,89.41,79.67Z"/><path class="cls-11" d="M80.69,63.47h-4c0,3.51-6.35,6.92-6.35,6.92l-.1-.06V95A49.47,49.47,0,0,0,89.41,79.67V72.19A8.72,8.72,0,0,0,80.69,63.47Z"/><path class="cls-12" d="M70,58.2a3.82,3.82,0,0,1-3.82-3.81.65.65,0,0,1,1.29,0,2.53,2.53,0,0,0,5.05,0,.65.65,0,0,1,1.29,0A3.82,3.82,0,0,1,70,58.2Z"/><path class="cls-13" d="M73.83,54.39a.65.65,0,0,0-1.29,0,2.53,2.53,0,0,1-2.38,2.52V58.2A3.82,3.82,0,0,0,73.83,54.39Z"/><polygon class="cls-14" points="16.97 50.86 16.97 67.95 29.7 67.11 29.7 50.02 16.97 50.86"/><polygon class="cls-15" points="42.44 49.19 29.7 50.02 29.7 67.11 42.44 66.28 42.44 49.19"/><path class="cls-3" d="M33.49,64.67V60.49H26v4.18a.61.61,0,0,1-.61.61H20.16V79.7H39.29V65.28H34.1A.61.61,0,0,1,33.49,64.67Z"/><path class="cls-4" d="M39.29,65.28H34.1a.61.61,0,0,1-.61-.61V60.49H29.7V79.7h9.59V65.28Z"/><circle class="cls-3" cx="17.52" cy="51.74" r="3.01"/><circle class="cls-4" cx="41.93" cy="51.74" r="3.01"/><path class="cls-5" d="M30.07,64.28h-.68A11.37,11.37,0,0,1,18,52.91V42.53A11.37,11.37,0,0,1,29.39,31.17h.68A11.37,11.37,0,0,1,41.43,42.53V52.91A11.37,11.37,0,0,1,30.07,64.28Z"/><path class="cls-3" d="M30.07,31.17H29.7V64.28h.37A11.37,11.37,0,0,0,41.43,52.91V42.53A11.36,11.36,0,0,0,30.07,31.17Z"/><path class="cls-16" d="M40.2,35a12.32,12.32,0,0,0-10.11-5.26h-.73A12.38,12.38,0,0,0,17,42.09V59.46h1.86V46.64h0c5.49-.56,10.9-1.64,15.64-4a28.32,28.32,0,0,0,5.85,5.13v11.7h2.12V42.09A12.24,12.24,0,0,0,40.2,35Z"/><path class="cls-14" d="M40.2,35a12.32,12.32,0,0,0-10.11-5.26H29.7V44.54a31.86,31.86,0,0,0,4.77-1.91,28.32,28.32,0,0,0,5.85,5.13v11.7h2.12V42.09A12.24,12.24,0,0,0,40.2,35Z"/><circle class="cls-8" cx="24.21" cy="50.4" r="1.17"/><circle class="cls-9" cx="35.24" cy="50.4" r="1.17"/><path class="cls-12" d="M29.73,60a3.83,3.83,0,0,1-3.83-3.82.65.65,0,0,1,1.3,0,2.53,2.53,0,1,0,5.06,0,.65.65,0,1,1,1.29,0A3.83,3.83,0,0,1,29.73,60Z"/><path class="cls-13" d="M32.9,55.52a.65.65,0,0,0-.64.65,2.54,2.54,0,0,1-2.53,2.53h0V60h0a3.83,3.83,0,0,0,3.82-3.82A.65.65,0,0,0,32.9,55.52Z"/><path class="cls-17" d="M40.11,65.28h-4c0,3.52-2.85,11.21-6.37,11.21s-6.38-7.69-6.38-11.21h-4A8.74,8.74,0,0,0,10.59,74v5.65A49.31,49.31,0,0,0,42.48,98.76a38.51,38.51,0,0,0,6.38-2.85V74A8.74,8.74,0,0,0,40.11,65.28Z"/><path class="cls-6" d="M40.11,65.28h-4c0,3.52-2.85,11.21-6.37,11.21h0V95a49.07,49.07,0,0,0,19.16,4.34V74A8.74,8.74,0,0,0,40.11,65.28Z"/><path class="cls-3" d="M52.39,81.71V79.06H47.61v2.65a.39.39,0,0,1-.38.39h-3.3v9.14H56.07V82.1h-3.3A.39.39,0,0,1,52.39,81.71Z"/><path class="cls-4" d="M56.07,82.1h-3.3a.39.39,0,0,1-.38-.39V79.06h-2.5V91.24h6.18Z"/><circle class="cls-3" cx="42.05" cy="73.51" r="1.91"/><circle class="cls-4" cx="57.54" cy="73.51" r="1.91"/><path class="cls-5" d="M50,81.46h-.43a7.21,7.21,0,0,1-7.21-7.21V67.67a7.21,7.21,0,0,1,7.21-7.21H50a7.21,7.21,0,0,1,7.21,7.21v6.58A7.21,7.21,0,0,1,50,81.46Z"/><path class="cls-3" d="M50,60.46h-.12v21H50a7.21,7.21,0,0,0,7.21-7.21V67.67A7.21,7.21,0,0,0,50,60.46Z"/><circle class="cls-8" cx="46.3" cy="72.66" r="0.74"/><circle class="cls-9" cx="53.3" cy="72.66" r="0.74"/><path class="cls-18" d="M56.59,82.1H54c0,2.23-4,4.4-4,4.4s-4-2.17-4-4.4H43.41a5.54,5.54,0,0,0-5.54,5.54V97.82a49.48,49.48,0,0,0,24.26,0V87.64A5.54,5.54,0,0,0,56.59,82.1Z"/><path class="cls-19" d="M56.59,82.1H54c0,2.23-4,4.4-4,4.4l-.11-.06V99.33H50a49,49,0,0,0,12.13-1.51V87.64A5.54,5.54,0,0,0,56.59,82.1Z"/><path class="cls-12" d="M49.8,78.74a2.42,2.42,0,0,1-2.43-2.42.41.41,0,0,1,.82,0,1.61,1.61,0,0,0,3.21,0,.41.41,0,0,1,.82,0A2.42,2.42,0,0,1,49.8,78.74Z"/><path class="cls-13" d="M52.22,76.32a.41.41,0,0,0-.82,0,1.61,1.61,0,0,1-1.51,1.6v.82A2.43,2.43,0,0,0,52.22,76.32Z"/><path class="cls-13" d="M44.16,65.25s-.37-4.59-7.43-6.51l-2.41,7.42Z"/><path class="cls-20" d="M55.84,65.25s.37-4.59,7.43-6.51l2.41,7.42Z"/><path class="cls-20" d="M56.51,71v2.53h1.35V67.39A7.84,7.84,0,0,0,50,59.56h-.47a7.84,7.84,0,0,0-7.83,7.83v6.12h1.15V71Z"/><path class="cls-21" d="M56.44,62.9A7.82,7.82,0,0,0,50,59.56h-.14V71h6.62v2.53h1.35V67.39A7.81,7.81,0,0,0,56.44,62.9Z"/></svg>