<svg viewBox="0 0 100 100" xmlns="http://www.w3.org/2000/svg"><ellipse cx="50" cy="50" fill="#adcfff" rx="49.33" ry="49.32"/><path d="m42.87 61.48-14.76-14.76-12.91 12.91 18.09 18.08-2.29 3.83 17.8 17.77h1.2a49.33 49.33 0 0 0 49.33-49.31c0-.81 0-1.61-.06-2.41l-30.27-30.3z" fill="#8bbbff"/><path d="m50 81.54h-19v-64.25h19l3.26 32.13z" fill="#005fe0"/><path d="m50 17.29h19v64.25h-19z" fill="#0051be"/><path d="m34.9 21.36h30.2v48.78h-30.2z" fill="#eef4ff"/><path d="m50 21.36h15.1v48.78h-15.1z" fill="#d6e9f8"/><circle cx="50" cy="76.05" fill="#2681ff" r="3.31"/><path d="m53.31 76.05a3.31 3.31 0 0 0 -3.31-3.3v6.61a3.31 3.31 0 0 0 3.31-3.31z" fill="#005fe0"/><circle cx="50" cy="46.72" fill="#00ddc1" r="7.41"/><path d="m57.41 46.72a7.41 7.41 0 0 0 -7.41-7.41v14.82a7.41 7.41 0 0 0 7.41-7.41z" fill="#00baa0"/><path d="m28.11 33.81h-12.91v25.82h12.91l8.89-12.91z" fill="#ff6379"/><path d="m41 59.63h-12.89v-25.82h12.89v10.31l7.33 2.6-7.33 2.6z" fill="#ff1f3e"/><path d="m35.93 44.6h-5.7v-5.69h-4.23v5.69h-5.7v4.24h5.7v5.69h4.23v-5.69h5.7z" fill="#eef4ff"/><path d="m30.23 38.91h-2.12v15.62h2.12v-5.69h5.7v-4.24h-5.7z" fill="#d6e9f8"/></svg>