<svg id="Layer_1" data-name="Layer 1" xmlns="http://www.w3.org/2000/svg" viewBox="0 0 100 100"><defs><style>.cls-1{fill:#adcfff;}.cls-2{fill:#8bbbff;}.cls-3{fill:#005fe0;}.cls-4{fill:#0051be;}.cls-5{fill:#eef4ff;}.cls-6{fill:#d6e9f8;}.cls-7{fill:#2681ff;}.cls-8{fill:#00ddc1;}.cls-9{fill:#00baa0;}.cls-10{fill:#ff6379;}.cls-11{fill:#ff1f3e;}</style></defs><ellipse class="cls-1" cx="50" cy="50" rx="49.33" ry="49.32"/><path class="cls-2" d="M42.87,61.48,28.11,46.72,15.2,59.63,33.29,77.71,31,81.54,48.8,99.31H50A49.33,49.33,0,0,0,99.33,50c0-.81,0-1.61-.06-2.41L69,17.29Z"/><path class="cls-3" d="M50,81.54H31V17.29H50l3.26,32.13Z"/><path class="cls-4" d="M50,17.29H69V81.54H50Z"/><path class="cls-5" d="M34.9,21.36H65.1V70.14H34.9Z"/><path class="cls-6" d="M50,21.36H65.1V70.14H50Z"/><circle class="cls-7" cx="50" cy="76.05" r="3.31"/><path class="cls-3" d="M53.31,76.05A3.31,3.31,0,0,0,50,72.75v6.61A3.31,3.31,0,0,0,53.31,76.05Z"/><circle class="cls-8" cx="50" cy="46.72" r="7.41"/><path class="cls-9" d="M57.41,46.72A7.41,7.41,0,0,0,50,39.31V54.13A7.41,7.41,0,0,0,57.41,46.72Z"/><path class="cls-10" d="M28.11,33.81H15.2V59.63H28.11L37,46.72Z"/><path class="cls-11" d="M41,59.63H28.11V33.81H41V44.12l7.33,2.6L41,49.32Z"/><path class="cls-5" d="M35.93,44.6h-5.7V38.91H26V44.6H20.3v4.24H26v5.69h4.23V48.84h5.7Z"/><path class="cls-6" d="M30.23,38.91H28.11V54.53h2.12V48.84h5.7V44.6h-5.7Z"/></svg>