<svg enable-background="new 0 0 512 512" viewBox="0 0 512 512" xmlns="http://www.w3.org/2000/svg"><path d="m512 256c0 141.4-114.6 256-256 256-6.7 0-13.3-.3-19.9-.8-6.2-.5-12.3-1.2-18.3-2.1-3.3-.5-6.5-1-9.8-1.7-118.4-22.4-208-126.4-208-251.4 0-141.4 114.6-256 256-256 134.2 0 244.3 103.3 255.1 234.8.4 4.9.7 9.8.8 14.8.1 2.1.1 4.2.1 6.4z" fill="#ff5440"/><g fill="#fff"><path d="m115.9 370.4c-30.1 0-54.6-24.5-54.6-54.6 0-8.5 6.9-15.5 15.5-15.5s15.5 6.9 15.5 15.5c0 13.1 10.6 23.7 23.7 23.7s23.7-10.6 23.7-23.7v-20.6c0-13.1-10.6-23.7-23.7-23.7-30.1 0-54.6-24.5-54.6-54.6v-20.6c0-30.1 24.5-54.6 54.6-54.6s54.6 24.5 54.6 54.6c0 8.5-6.9 15.5-15.5 15.5s-15.5-6.9-15.5-15.5c0-13.1-10.6-23.7-23.7-23.7s-23.7 10.6-23.7 23.7v20.6c0 13.1 10.6 23.7 23.7 23.7 30.1 0 54.6 24.5 54.6 54.6v20.6c0 30.1-24.5 54.6-54.6 54.6z"/><path d="m396.1 370.4c-30.1 0-54.6-24.5-54.6-54.6 0-8.5 6.9-15.5 15.5-15.5s15.5 6.9 15.5 15.5c0 13.1 10.6 23.7 23.7 23.7s23.7-10.6 23.7-23.7v-20.6c0-13.1-10.6-23.7-23.7-23.7-30.1 0-54.6-24.5-54.6-54.6v-20.6c0-30.1 24.5-54.6 54.6-54.6s54.6 24.5 54.6 54.6c0 8.5-6.9 15.5-15.5 15.5s-15.5-6.9-15.5-15.5c0-13.1-10.6-23.7-23.7-23.7s-23.7 10.6-23.7 23.7v20.6c0 13.1 10.6 23.7 23.7 23.7 30.1 0 54.6 24.5 54.6 54.6v20.6c0 30.1-24.5 54.6-54.6 54.6z"/><path d="m256 370.4c-30.1 0-54.6-24.5-54.6-54.6v-119.6c0-30.1 24.5-54.6 54.6-54.6s54.6 24.5 54.6 54.6v119.5c0 30.2-24.5 54.7-54.6 54.7zm0-197.8c-13.1 0-23.7 10.6-23.7 23.7v119.5c0 13.1 10.6 23.7 23.7 23.7s23.7-10.6 23.7-23.7v-119.6c0-13-10.6-23.6-23.7-23.6z"/><path d="m101.7 334.7-27.1 15 7.5 8.8c-12.6-10-20.8-25.5-20.8-42.8 0-8.5 6.9-15.5 15.5-15.5 8.5 0 15.5 6.9 15.5 15.5-.1 7.8 3.6 14.7 9.4 19z"/><path d="m170.5 295.2v1.3l-30.9 17.2v-18.5c0-13.1-10.6-23.7-23.7-23.7-30.1 0-54.6-24.5-54.6-54.6v-20.6c0-30.1 24.5-54.6 54.6-54.6s54.6 24.5 54.6 54.6c0 8.5-6.9 15.5-15.5 15.5-8.5 0-15.4-6.9-15.4-15.5 0-13.1-10.6-23.7-23.7-23.7s-23.7 10.6-23.7 23.7v20.6c0 13.1 10.6 23.7 23.7 23.7 30.1-.1 54.6 24.4 54.6 54.6z"/><path d="m450.7 196.3c0 8.5-6.9 15.5-15.5 15.5-8.5 0-15.5-6.9-15.5-15.5 0-13.1-10.6-23.7-23.7-23.7-1 0-1.9.1-2.8.2-6.3.7-11.9 4-15.6 8.7l-36.1 20.1v-5.2c0-30.1 24.5-54.6 54.6-54.6 12.4 0 23.9 4.1 33 11.2 3.9 3 7.5 6.5 10.4 10.4 7.1 9 11.2 20.5 11.2 32.9z"/><path d="m256 141.7c-30.1 0-54.6 24.5-54.6 54.6v83.1l30.9-17.2v-65.9c0-13.1 10.6-23.7 23.7-23.7s23.7 10.6 23.7 23.7v39.6l30.9-17.2v-22.4c0-30.2-24.5-54.6-54.6-54.6z"/></g></svg>