<?xml version="1.0" encoding="utf-8"?>
<!-- Generator: Adobe Illustrator 24.3.0, SVG Export Plug-In . SVG Version: 6.00 Build 0)  -->
<svg version="1.1" id="Capa_1" xmlns="http://www.w3.org/2000/svg" xmlns:xlink="http://www.w3.org/1999/xlink" x="0px" y="0px"
	 viewBox="0 0 512 512" style="enable-background:new 0 0 512 512;" xml:space="preserve">
<style type="text/css">
	.st0{fill:#FF5440;}
	.st1{fill:#FFFFFF;}
</style>
<path class="st0" d="M512,256c0,141.4-114.6,256-256,256c-6.7,0-13.3-0.3-19.9-0.8c-6.2-0.5-12.3-1.2-18.3-2.1
	c-3.3-0.5-6.5-1-9.8-1.7C89.6,485,0,381,0,256C0,114.6,114.6,0,256,0c134.2,0,244.3,103.3,255.1,234.8c0.4,4.9,0.7,9.8,0.8,14.8
	C512,251.7,512,253.8,512,256z"/>
<g>
	<path class="st1" d="M115.9,370.4c-30.1,0-54.6-24.5-54.6-54.6c0-8.5,6.9-15.5,15.5-15.5s15.5,6.9,15.5,15.5
		c0,13.1,10.6,23.7,23.7,23.7s23.7-10.6,23.7-23.7v-20.6c0-13.1-10.6-23.7-23.7-23.7c-30.1,0-54.6-24.5-54.6-54.6v-20.6
		c0-30.1,24.5-54.6,54.6-54.6s54.6,24.5,54.6,54.6c0,8.5-6.9,15.5-15.5,15.5s-15.5-6.9-15.5-15.5c0-13.1-10.6-23.7-23.7-23.7
		s-23.7,10.6-23.7,23.7v20.6c0,13.1,10.6,23.7,23.7,23.7c30.1,0,54.6,24.5,54.6,54.6v20.6C170.5,345.9,146,370.4,115.9,370.4z"/>
	<path class="st1" d="M396.1,370.4c-30.1,0-54.6-24.5-54.6-54.6c0-8.5,6.9-15.5,15.5-15.5s15.5,6.9,15.5,15.5
		c0,13.1,10.6,23.7,23.7,23.7s23.7-10.6,23.7-23.7v-20.6c0-13.1-10.6-23.7-23.7-23.7c-30.1,0-54.6-24.5-54.6-54.6v-20.6
		c0-30.1,24.5-54.6,54.6-54.6s54.6,24.5,54.6,54.6c0,8.5-6.9,15.5-15.5,15.5s-15.5-6.9-15.5-15.5c0-13.1-10.6-23.7-23.7-23.7
		s-23.7,10.6-23.7,23.7v20.6c0,13.1,10.6,23.7,23.7,23.7c30.1,0,54.6,24.5,54.6,54.6v20.6C450.7,345.9,426.2,370.4,396.1,370.4z"/>
	<path class="st1" d="M256,370.4c-30.1,0-54.6-24.5-54.6-54.6V196.2c0-30.1,24.5-54.6,54.6-54.6c30.1,0,54.6,24.5,54.6,54.6v119.5
		C310.6,345.9,286.1,370.4,256,370.4z M256,172.6c-13.1,0-23.7,10.6-23.7,23.7v119.5c0,13.1,10.6,23.7,23.7,23.7
		c13.1,0,23.7-10.6,23.7-23.7V196.2C279.7,183.2,269.1,172.6,256,172.6z"/>
</g>
<g>
	<path class="st1" d="M101.7,334.7l-27.1,15l7.5,8.8c-12.6-10-20.8-25.5-20.8-42.8c0-8.5,6.9-15.5,15.5-15.5
		c8.5,0,15.5,6.9,15.5,15.5C92.2,323.5,95.9,330.4,101.7,334.7z"/>
	<path class="st1" d="M170.5,295.2v1.3l-30.9,17.2v-18.5c0-13.1-10.6-23.7-23.7-23.7c-30.1,0-54.6-24.5-54.6-54.6v-20.6
		c0-30.1,24.5-54.6,54.6-54.6c30.1,0,54.6,24.5,54.6,54.6c0,8.5-6.9,15.5-15.5,15.5c-8.5,0-15.4-6.9-15.4-15.5
		c0-13.1-10.6-23.7-23.7-23.7c-13.1,0-23.7,10.6-23.7,23.7v20.6c0,13.1,10.6,23.7,23.7,23.7C146,240.5,170.5,265,170.5,295.2z"/>
	<path class="st1" d="M450.7,196.3c0,8.5-6.9,15.5-15.5,15.5c-8.5,0-15.5-6.9-15.5-15.5c0-13.1-10.6-23.7-23.7-23.7
		c-1,0-1.9,0.1-2.8,0.2c-6.3,0.7-11.9,4-15.6,8.7l-36.1,20.1v-5.2c0-30.1,24.5-54.6,54.6-54.6c12.4,0,23.9,4.1,33,11.2
		c3.9,3,7.5,6.5,10.4,10.4C446.6,172.4,450.7,183.9,450.7,196.3z"/>
	<path class="st1" d="M256,141.7c-30.1,0-54.6,24.5-54.6,54.6v83.1l30.9-17.2v-65.9c0-13.1,10.6-23.7,23.7-23.7s23.7,10.6,23.7,23.7
		v39.6l30.9-17.2v-22.4C310.6,166.1,286.1,141.7,256,141.7z"/>
</g>
</svg>
