<svg id="Layer_1" data-name="Layer 1" xmlns="http://www.w3.org/2000/svg" viewBox="0 0 100 100"><defs><style>.cls-1{fill:#00ddc1;}.cls-2{fill:#00baa0;}.cls-3{fill:#eef4ff;}.cls-4{fill:#d6e9f8;}.cls-5{fill:#613393;}.cls-6{fill:#7a3eb4;}.cls-7{fill:#edbe00;}.cls-8{fill:#ff9e22;}.cls-9{fill:#ff6379;}.cls-10{fill:#ff1f3e;}</style></defs><circle class="cls-1" cx="51.3" cy="49.74" r="49.33"/><path class="cls-2" d="M100.53,52.81,76.42,25.88,65.07,40.75,56.29,18.46,41.76,36.08l-9.59-9.59L30,28.7l9.59,9.59L32.4,49.11,54.14,35.39,35.71,46.75,43.86,51l.64,8.78-8.36,3L28.25,82l15,16.37a49.34,49.34,0,0,0,57.29-45.6"/><path class="cls-3" d="M74.34,82H41.27l10-2.27,10,2.27H28.25V27.34H74.34Z"/><path class="cls-4" d="M74.34,82h-13l-10-2.27V27.34h23Z"/><path class="cls-5" d="M41.27,64.71h20V82h-20Z"/><path class="cls-6" d="M26.17,25.88H76.42V29.5H26.17Z"/><path class="cls-6" d="M41.27,64.71h10V82h-10Z"/><path class="cls-5" d="M65.7,57h4.22v4.21H65.7Z"/><path class="cls-5" d="M65.7,64.83h4.22V69H65.7Z"/><path class="cls-5" d="M65.7,72.68h4.22V76.9H65.7Z"/><path class="cls-6" d="M32.4,57h4.21v4.21H32.4Z"/><path class="cls-6" d="M32.4,64.83h4.21V69H32.4Z"/><path class="cls-6" d="M32.4,72.68h4.21V76.9H32.4Z"/><path class="cls-7" d="M41.27,40h20v4.22h-20Z"/><path class="cls-8" d="M51.29,40h10v4.22h-10Z"/><path class="cls-5" d="M51.29,25.88H76.42V29.5H51.29Z"/><circle class="cls-3" cx="51.3" cy="27.69" r="10.25"/><path class="cls-4" d="M61.55,27.69A10.25,10.25,0,0,0,51.3,17.44V38A10.25,10.25,0,0,0,61.55,27.69Z"/><path class="cls-9" d="M57.41,26H53V21.58H49.64V26H45.19v3.31h4.45V33.8H53V29.35h4.46Z"/><path class="cls-10" d="M53,21.58H51.3V33.8H53V29.35h4.46V26H53Z"/><path class="cls-6" d="M41.16,57h4.22v4.21H41.16Z"/><path class="cls-6" d="M49.05,57h4.22v4.21H49.05Z"/><path class="cls-5" d="M57.38,57H61.6v4.21H57.38Z"/><path class="cls-5" d="M65.7,49.11h4.22v4.21H65.7Z"/><path class="cls-6" d="M32.4,49.11h4.21v4.21H32.4Z"/><path class="cls-6" d="M41.16,49.11h4.22v4.21H41.16Z"/><path class="cls-6" d="M49.05,49.11h4.22v4.21H49.05Z"/><path class="cls-5" d="M57.38,49.11H61.6v4.21H57.38Z"/><path class="cls-5" d="M51.16,57h2.11v4.21H51.16Z"/><path class="cls-5" d="M51.16,49.11h2.11v4.21H51.16Z"/></svg>