<svg viewBox="0 0 100 100" xmlns="http://www.w3.org/2000/svg"><circle cx="51.3" cy="49.74" fill="#00ddc1" r="49.33"/><path d="m100.53 52.81-24.11-26.93-11.35 14.87-8.78-22.29-14.53 17.62-9.59-9.59-2.17 2.21 9.59 9.59-7.19 10.82 21.74-13.72-18.43 11.36 8.15 4.25.64 8.78-8.36 3-7.89 19.22 15 16.37a49.34 49.34 0 0 0 57.29-45.6" fill="#00baa0"/><path d="m74.34 82h-33.07l10-2.27 10 2.27h-33.02v-54.66h46.09z" fill="#eef4ff"/><path d="m74.34 82h-13l-10-2.27v-52.39h23z" fill="#d6e9f8"/><path d="m41.27 64.71h20v17.29h-20z" fill="#613393"/><path d="m26.17 25.88h50.25v3.62h-50.25z" fill="#7a3eb4"/><path d="m41.27 64.71h10v17.29h-10z" fill="#7a3eb4"/><g fill="#613393"><path d="m65.7 57h4.22v4.21h-4.22z"/><path d="m65.7 64.83h4.22v4.17h-4.22z"/><path d="m65.7 72.68h4.22v4.22h-4.22z"/></g><path d="m32.4 57h4.21v4.21h-4.21z" fill="#7a3eb4"/><path d="m32.4 64.83h4.21v4.17h-4.21z" fill="#7a3eb4"/><path d="m32.4 72.68h4.21v4.22h-4.21z" fill="#7a3eb4"/><path d="m41.27 40h20v4.22h-20z" fill="#edbe00"/><path d="m51.29 40h10v4.22h-10z" fill="#ff9e22"/><path d="m51.29 25.88h25.13v3.62h-25.13z" fill="#613393"/><circle cx="51.3" cy="27.69" fill="#eef4ff" r="10.25"/><path d="m61.55 27.69a10.25 10.25 0 0 0 -10.25-10.25v20.56a10.25 10.25 0 0 0 10.25-10.31z" fill="#d6e9f8"/><path d="m57.41 26h-4.41v-4.42h-3.36v4.42h-4.45v3.31h4.45v4.49h3.36v-4.45h4.46z" fill="#ff6379"/><path d="m53 21.58h-1.7v12.22h1.7v-4.45h4.46v-3.35h-4.46z" fill="#ff1f3e"/><path d="m41.16 57h4.22v4.21h-4.22z" fill="#7a3eb4"/><path d="m49.05 57h4.22v4.21h-4.22z" fill="#7a3eb4"/><path d="m57.38 57h4.22v4.21h-4.22z" fill="#613393"/><path d="m65.7 49.11h4.22v4.21h-4.22z" fill="#613393"/><path d="m32.4 49.11h4.21v4.21h-4.21z" fill="#7a3eb4"/><path d="m41.16 49.11h4.22v4.21h-4.22z" fill="#7a3eb4"/><path d="m49.05 49.11h4.22v4.21h-4.22z" fill="#7a3eb4"/><path d="m57.38 49.11h4.22v4.21h-4.22z" fill="#613393"/><path d="m51.16 57h2.11v4.21h-2.11z" fill="#613393"/><path d="m51.16 49.11h2.11v4.21h-2.11z" fill="#613393"/></svg>