<?xml version="1.0" encoding="iso-8859-1"?>
<!-- Generator: Adobe Illustrator 19.0.0, SVG Export Plug-In . SVG Version: 6.00 Build 0)  -->
<svg version="1.1" id="Capa_1" xmlns="http://www.w3.org/2000/svg" xmlns:xlink="http://www.w3.org/1999/xlink" x="0px" y="0px"
	 viewBox="0 0 512 512" style="enable-background:new 0 0 512 512;" xml:space="preserve">
<circle style="fill:#80D3F9;" cx="256" cy="256" r="256"/>
<path style="fill:#00AFFE;" d="M512,256c0-18.163-1.904-35.878-5.501-52.971L452.74,149.27L59,216.27l128.421,128.421L92,398.27
	l107.45,107.45c18.194,4.103,37.117,6.28,56.55,6.28C397.385,512,512,397.385,512,256z"/>
<rect x="92" y="190.27" style="fill:#C75E0B;" width="328" height="208"/>
<g>
	<rect x="255.95" y="190.27" style="fill:#A34A28;" width="164.05" height="208"/>
	<rect x="59" y="149.27" style="fill:#A34A28;" width="394" height="67"/>
</g>
<rect x="255.95" y="149.27" style="fill:#772E18;" width="197.05" height="67"/>
<circle style="fill:#FFFFFF;" cx="256" cy="265.52" r="17.489"/>
<path style="fill:#CED7DB;" d="M256,248.034c-0.016,0-0.032,0.002-0.048,0.002v34.972c0.016,0,0.032,0.002,0.048,0.002
	c9.659,0,17.489-7.83,17.489-17.489C273.489,255.864,265.659,248.034,256,248.034z"/>
<rect x="244.34" y="295.5" style="fill:#FFFFFF;" width="23.318" height="66.5"/>
<rect x="255.95" y="295.5" style="fill:#CED7DB;" width="11.707" height="66.5"/>
<g>
</g>
<g>
</g>
<g>
</g>
<g>
</g>
<g>
</g>
<g>
</g>
<g>
</g>
<g>
</g>
<g>
</g>
<g>
</g>
<g>
</g>
<g>
</g>
<g>
</g>
<g>
</g>
<g>
</g>
</svg>
