<svg id="Layer_1" data-name="Layer 1" xmlns="http://www.w3.org/2000/svg" viewBox="0 0 100 100"><defs><style>.cls-1{fill:#006775;}.cls-2{fill:#055661;}.cls-3{fill:#fefefe;}.cls-4{fill:#d9dada;}.cls-5{fill:#00cc96;}.cls-6{fill:#07b587;}.cls-7{fill:#e1e5e6;}.cls-8{fill:#ccc;}.cls-9{fill:#e84f4f;}.cls-10{fill:#c94545;}</style></defs><circle class="cls-1" cx="50" cy="50" r="49.33"/><path class="cls-2" d="M98.22,60.5A49.4,49.4,0,0,1,40.27,98.37L18.22,76.32l14.42-5.76L52.4,65.39,63.72,26Z"/><path class="cls-3" d="M28.94,59.48A6.91,6.91,0,0,0,26.62,62L18.47,75c-.64,1-.34,1.69.41,1.37l13.75-5.82c.25.35,10.74,9,11.1,8.83L62,72.73c.39.1,16.91,5.8,17.92,6.1,1.26.39,2-.16,2-1.51l-.2-13.38c0-1.35.2-2.58-1-3-1.85-.66-12.49-5.15-13-5-2.78,1-15.34,5.52-15.34,5.52C50.41,60,42,54.34,41.6,54.08a1.89,1.89,0,0,0-1.21.16c-1.44.48-10,4.62-11.45,5.24Z"/><path class="cls-4" d="M62,72.74c.63.19,16.91,5.8,17.9,6.1l0,0,.06,0h1.1l0,0,0,0,0,0h0l0,0,0,0h0l0,0,0,0,0,0,0,0,0,0,0,0,0,0h0l0,0,0,0,0,0h0l0,0v0l0,0,0,0,0,0,0,0,0,0,0,0,0,0v-.24h0v0h0v-.22h0v-.29L81.7,64c0-1.35.2-2.58-1-3-1.86-.66-12.5-5.15-13-5L62.05,72.77Z"/><path class="cls-4" d="M32.63,70.56c.25.34,10.3,8.61,11.06,8.83h0l8.64-17.94C50.41,60,42,54.34,41.6,54.08l-9,16.47Z"/><path class="cls-5" d="M51.3,65.39h.63a19.14,19.14,0,0,1,1.48-3.15l4.77-9.76c2.19-4.36,4.23-8.67,6.39-13,2.49-5,2.94-9.86,0-14.94-2.32-4-7.17-7.37-12-7.37-3.6,0-6.09.34-9.06,2.31a14.78,14.78,0,0,0-4.76,4.93c-3,5.06-2.63,10-.08,15.07C39,40.23,51.07,64.39,51.3,65.39Z"/><path class="cls-6" d="M51.46,65.39h.47a19.14,19.14,0,0,1,1.48-3.15l4.77-9.76c2.19-4.36,4.23-8.67,6.39-13,2.49-5,2.94-9.86,0-14.94-2.32-4-7.17-7.37-12-7.37H51.46Z"/><circle class="cls-7" cx="51.61" cy="31.23" r="8.97"/><path class="cls-8" d="M51.46,22.28V40.2h.15a9,9,0,1,0,0-17.93h-.15Z"/><path class="cls-9" d="M51.61,28a3.27,3.27,0,1,1-3.27,3.26A3.26,3.26,0,0,1,51.61,28Z"/><path class="cls-10" d="M51.46,28V34.5h.15a3.27,3.27,0,1,0,0-6.53h-.15Z"/></svg>