<svg viewBox="0 0 100 100" xmlns="http://www.w3.org/2000/svg"><circle cx="50" cy="50" fill="#006775" r="49.33"/><path d="m98.22 60.5a49.4 49.4 0 0 1 -57.95 37.87l-22.05-22.05 14.42-5.76 19.76-5.17 11.32-39.39z" fill="#055661"/><path d="m28.94 59.48a6.91 6.91 0 0 0 -2.32 2.52l-8.15 13c-.64 1-.34 1.69.41 1.37l13.75-5.82c.25.35 10.74 9 11.1 8.83l18.27-6.65c.39.1 16.91 5.8 17.92 6.1 1.26.39 2-.16 2-1.51l-.2-13.38c0-1.35.2-2.58-1-3-1.85-.66-12.49-5.15-13-5-2.78 1-15.34 5.52-15.34 5.52-1.97-1.46-10.38-7.12-10.78-7.38a1.89 1.89 0 0 0 -1.21.16c-1.44.48-10 4.62-11.45 5.24z" fill="#fefefe"/><path d="m62 72.74c.63.19 16.91 5.8 17.9 6.1h.06 1.1v-.24-.22-.29l.64-14.09c0-1.35.2-2.58-1-3-1.86-.66-12.5-5.15-13-5l-5.65 16.77z" fill="#d9dada"/><path d="m32.63 70.56c.25.34 10.3 8.61 11.06 8.83l8.64-17.94c-1.92-1.45-10.33-7.11-10.73-7.37l-9 16.47z" fill="#d9dada"/><path d="m51.3 65.39h.63a19.14 19.14 0 0 1 1.48-3.15l4.77-9.76c2.19-4.36 4.23-8.67 6.39-13 2.49-5 2.94-9.86 0-14.94-2.32-4-7.17-7.37-12-7.37-3.6 0-6.09.34-9.06 2.31a14.78 14.78 0 0 0 -4.76 4.93c-3 5.06-2.63 10-.08 15.07.33.75 12.4 24.91 12.63 25.91z" fill="#00cc96"/><path d="m51.46 65.39h.47a19.14 19.14 0 0 1 1.48-3.15l4.77-9.76c2.19-4.36 4.23-8.67 6.39-13 2.49-5 2.94-9.86 0-14.94-2.32-4-7.17-7.37-12-7.37h-1.11z" fill="#07b587"/><circle cx="51.61" cy="31.23" fill="#e1e5e6" r="8.97"/><path d="m51.46 22.28v17.92h.15a9 9 0 1 0 0-17.93h-.15z" fill="#ccc"/><path d="m51.61 28a3.27 3.27 0 1 1 -3.27 3.26 3.26 3.26 0 0 1 3.27-3.26z" fill="#e84f4f"/><path d="m51.46 28v6.5h.15a3.27 3.27 0 1 0 0-6.53h-.15z" fill="#c94545"/></svg>