<svg enable-background="new 0 0 400.6 272" viewBox="0 0 400.6 272" xmlns="http://www.w3.org/2000/svg"><path d="m89.5 85.2h261.6c6.4 0 11.5 3.8 11.5 8.4v122c0 4.6-5.1 8.4-11.5 8.4h-261.6c-6.4 0-11.5-3.8-11.5-8.4v-122c0-4.6 5.2-8.4 11.5-8.4z" fill="#3f5a7c" opacity=".15"/><path d="m101.3 74.7h261.6c6.4 0 11.5 3.8 11.5 8.4v122.1c0 4.6-5.1 8.4-11.5 8.4h-261.6c-6.4 0-11.5-3.8-11.5-8.4v-122.1c0-4.7 5.1-8.4 11.5-8.4z" fill="#fff"/><g stroke-miterlimit="10"><path d="m92.4 151.5v-50.8c0-6.1-.6-12.3 0-18.4.5-5.4 6.3-6.4 12.2-6.4h56.2c3.7 0 3.7-4.2 0-4.2h-54.6c-4.8 0-9.5-.2-13.7 2.1-8.1 4.4-5.9 13.9-5.9 20.4v57.3c.1 2.7 5.8 2.7 5.8 0z" fill="#324a5e" stroke="#324a5e" stroke-width="3"/><path d="m92.4 164.9v-5.6c0-2.7-5.8-2.7-5.8 0v5.6c0 2.7 5.8 2.7 5.8 0z" fill="#324a5e" stroke="#324a5e" stroke-width="3"/><path d="m293 211.5h-189.7c-1 0-2 0-3-.1-6.9-.6-7.8-5-7.8-9.1v-20.9c0-2.7-5.8-2.7-5.8 0v19.1c0 2.6-.4 5.4.7 7.9 2 4.3 7.5 7.3 13.7 7.4 9.7.3 19.4 0 29.1 0h162.9c3.7-.1 3.7-4.3-.1-4.3z" fill="#324a5e" stroke="#324a5e" stroke-width="3"/><path d="m191.4 75.9h158.4c5.3 0 14.8-1.2 18.9 1.9 3 2.2 2.5 5.1 2.5 7.9v117.1c0 4.2-1.6 8.4-8.6 8.7-14.2.7-28.8 0-43.1 0h-4.9c-3.7 0-3.7 4.2 0 4.2h44.5c8.2 0 16.3-2.2 17.7-9.1.2-2 .3-4 .2-6v-110.2c0-2.5.1-5.1 0-7.7-.2-6.1-5.9-10.8-14.4-11.1-23.3-.7-46.9 0-70.2 0h-101c-3.7.1-3.7 4.3 0 4.3z" fill="#324a5e" stroke="#324a5e" stroke-width="3"/><path d="m123.9 187.2h217.8c.2-24.1-.1-41.2 0-59.9h-217.8c0 11.4-.1 46.3 0 59.9z" style="fill:#3f5a7c;stroke:#2e576d;stroke-width:6;stroke-linecap:round;stroke-linejoin:round;opacity:.2"/></g><path d="m125.3 108h123.1c5.2 0 5.2-9.3 0-9.3h-123.1c-5.2-.1-5.2 9.3 0 9.3z" fill="#3f5a7c"/><circle cx="155.1" cy="157.3" fill="#fff" r="21"/><path d="m195.3 172.5h123.1c5.2 0 5.2-7.2 0-7.2h-123.1c-5.2 0-5.2 7.2 0 7.2z" fill="#fff"/><path d="m195.3 150.8h97.4c5.2 0 5.2-7.2 0-7.2h-97.4c-5.2 0-5.2 7.2 0 7.2z" fill="#fff"/><path d="m30.5 20.2h261.6c6.4 0 11.5 3.8 11.5 8.4v122c0 4.6-5.1 8.4-11.5 8.4h-261.6c-6.4 0-11.5-3.8-11.5-8.4v-122c0-4.6 5.2-8.4 11.5-8.4z" fill="#3f5a7c" opacity=".15"/><path d="m42.3 9.7h261.6c6.4 0 11.5 3.8 11.5 8.4v122.1c0 4.6-5.1 8.4-11.5 8.4h-261.6c-6.4 0-11.5-3.8-11.5-8.4v-122.1c0-4.7 5.1-8.4 11.5-8.4z" fill="#fff"/><path d="m33.4 86.5v-50.9c0-6.1-.6-12.3 0-18.4.5-5.4 6.3-6.4 12.2-6.4h56.2c3.7 0 3.7-4.2 0-4.2h-54.6c-4.8 0-9.5-.2-13.7 2.1-8.1 4.4-5.9 13.9-5.9 20.4v57.3c.1 2.8 5.8 2.8 5.8.1z" fill="#324a5e" stroke="#324a5e" stroke-miterlimit="10" stroke-width="3"/><path d="m33.4 99.9v-5.6c0-2.7-5.8-2.7-5.8 0v5.6c0 2.7 5.8 2.7 5.8 0z" fill="#324a5e" stroke="#324a5e" stroke-miterlimit="10" stroke-width="3"/><path d="m234 146.5h-189.7c-1 0-2 0-3-.1-6.9-.6-7.8-5-7.8-9.1v-20.9c0-2.7-5.8-2.7-5.8 0v19.1c0 2.6-.4 5.4.7 7.9 2 4.3 7.5 7.3 13.7 7.4 9.7.3 19.4 0 29.1 0h162.9c3.7-.1 3.7-4.3-.1-4.3z" fill="#324a5e" stroke="#324a5e" stroke-miterlimit="10" stroke-width="3"/><path d="m132.4 10.9h158.4c5.3 0 14.8-1.2 18.9 1.9 3 2.2 2.5 5.1 2.5 7.9v117.1c0 4.2-1.6 8.4-8.6 8.7-14.2.7-28.8 0-43.1 0h-4.9c-3.7 0-3.7 4.2 0 4.2h44.5c8.2 0 16.3-2.2 17.7-9.1.2-2 .3-4 .2-6v-110.2c0-2.5.1-5.1 0-7.7-.2-6.1-5.9-10.8-14.4-11.1-23.3-.7-46.9 0-70.2 0h-101c-3.7.1-3.7 4.3 0 4.3z" fill="#324a5e" stroke="#324a5e" stroke-miterlimit="10" stroke-width="3"/><path d="m64.9 122.2h217.8c.2-24.1-.1-41.2 0-59.9h-217.8c0 11.4-.1 46.3 0 59.9z" style="fill:#3f5a7c;stroke:#2e576d;stroke-width:6;stroke-linecap:round;stroke-linejoin:round;stroke-miterlimit:10;opacity:.2"/><path d="m66.3 43h123.1c5.2 0 5.2-9.3 0-9.3h-123.1c-5.2-.1-5.2 9.3 0 9.3z" fill="#3f5a7c"/><circle cx="96.1" cy="92.3" fill="#fff" r="21"/><path d="m136.3 107.5h123.1c5.2 0 5.2-7.2 0-7.2h-123.1c-5.2 0-5.2 7.2 0 7.2z" fill="#fff"/><path d="m136.3 85.8h97.4c5.2 0 5.2-7.2 0-7.2h-97.4c-5.2 0-5.2 7.2 0 7.2z" fill="#fff"/></svg>