<svg enable-background="new 0 0 511.999 511.999" viewBox="0 0 511.999 511.999" xmlns="http://www.w3.org/2000/svg"><circle cx="256" cy="256" fill="#ffd630" r="256"/><path d="m511.689 269.922c-6.962 130.286-111.377 234.702-241.663 241.767l-137.039-137.039 1.351-21.715-27.428-41.975-12.364-57.973 8.208-51.844 24.104-52.883 56.415-42.598 58.078-16.935 57.974 6.13 77.611 40.312z" fill="#f5be18"/><circle cx="256" cy="256" fill="#e84f4f" r="170.91"/><circle cx="256" cy="255.999" fill="#00cc96" r="149.502"/><path d="m260.467 139.74c27.844 0 54.65 8.416 78.13 23.065-13.403 13.714-32 32.935-45.402 47.169-58.182-27.324-138.806-8.416-160.832 56.312 1.974-78.961 52.987-126.546 128-126.546z" fill="#ffd630"/><path d="m297.039 280.728c5.507 12.26 4.572 27.117-3.74 38.961-12.571 17.87-37.194 22.13-55.065 9.662-17.871-12.571-22.13-37.194-9.662-55.065 8.312-11.844 21.922-17.767 35.429-16.728l89.454-92.259zm-34.39.83c8.312 0 15.065 6.754 15.168 15.065 0 8.312-6.754 15.065-15.065 15.168-8.312 0-15.065-6.754-15.168-15.065.001-8.31 6.754-15.063 15.065-15.168z" fill="#055661"/></svg>