<?xml version="1.0" encoding="iso-8859-1"?>
<!-- Generator: Adobe Illustrator 19.0.0, SVG Export Plug-In . SVG Version: 6.00 Build 0)  -->
<svg version="1.1" id="Layer_1" xmlns="http://www.w3.org/2000/svg" xmlns:xlink="http://www.w3.org/1999/xlink" x="0px" y="0px"
	 viewBox="0 0 511.999 511.999" style="enable-background:new 0 0 511.999 511.999;" xml:space="preserve">
<circle style="fill:#FFD630;" cx="256" cy="256" r="256"/>
<path style="fill:#F5BE18;" d="M511.689,269.922c-6.962,130.286-111.377,234.702-241.663,241.767L132.987,374.65l1.351-21.715
	L106.91,310.96l-12.364-57.973l8.208-51.844l24.104-52.883l56.415-42.598l58.078-16.935l57.974,6.13l77.611,40.312L511.689,269.922z
	"/>
<circle style="fill:#E84F4F;" cx="256" cy="256" r="170.91"/>
<circle style="fill:#00CC96;" cx="256" cy="255.999" r="149.502"/>
<path style="fill:#FFD630;" d="M260.467,139.74c27.844,0,54.65,8.416,78.13,23.065c-13.403,13.714-32,32.935-45.402,47.169
	c-58.182-27.324-138.806-8.416-160.832,56.312c1.974-78.961,52.987-126.546,128-126.546L260.467,139.74L260.467,139.74z"/>
<path style="fill:#055661;" d="M297.039,280.728c5.507,12.26,4.572,27.117-3.74,38.961c-12.571,17.87-37.194,22.13-55.065,9.662
	c-17.871-12.571-22.13-37.194-9.662-55.065c8.312-11.844,21.922-17.767,35.429-16.728l89.454-92.259L297.039,280.728z
	 M262.649,281.558c8.312,0,15.065,6.754,15.168,15.065c0,8.312-6.754,15.065-15.065,15.168c-8.312,0-15.065-6.754-15.168-15.065
	C247.585,288.416,254.338,281.663,262.649,281.558z"/>
<g>
</g>
<g>
</g>
<g>
</g>
<g>
</g>
<g>
</g>
<g>
</g>
<g>
</g>
<g>
</g>
<g>
</g>
<g>
</g>
<g>
</g>
<g>
</g>
<g>
</g>
<g>
</g>
<g>
</g>
</svg>
