<svg enable-background="new 0 0 512 512" viewBox="0 0 512 512" xmlns="http://www.w3.org/2000/svg"><path d="m512 256.3v1 3.9c-.1 3.5-.2 7-.4 10.4-.1 2.2-.3 4.3-.5 6.5-9.2 107.6-84.9 196.3-185.9 224.5-3.4.9-6.8 1.8-10.2 2.6-4.8 1.1-9.7 2.1-14.7 3-10.1 1.8-20.5 2.9-31 3.5-.6 0-1.2.1-1.9.1-.3 0-.7 0-1 0-3.5.2-7.1.2-10.7.2-12.6 0-24.9-.9-37-2.7-4.3-.6-8.6-1.4-12.8-2.2-.2-.1-.5-.1-.7-.1-12.9-2.6-25.5-6.2-37.6-10.6-3.5-1.3-7-2.7-10.4-4.1-92.4-38.8-157.3-130.1-157.2-236.6.1-141.3 114.9-255.8 256.3-255.7 119.1.1 219.1 81.5 247.6 191.6.3 1.3.7 2.7 1 4 .7 2.9 1.3 5.8 1.9 8.7.4 1.9.8 3.9 1.1 5.8.1.6.2 1.2.3 1.7 1.1 6.5 2 13.1 2.6 19.8.4 4.4.7 8.9.9 13.4.2 3.8.3 7.5.3 11.3z" fill="#00bdff"/><path d="m511.1 278c-9.2 107.6-84.9 196.3-185.9 224.5l-69.2-69c.2-.2.4-.8.8-1.3 5.6-7.1 6.3-14.8 6.6-16.5.1-1 .5-2.1 1.2-3.3l-94-94 190.4-190.4z" fill="#33f" opacity=".17"/><path d="m368.3 284.8c14.8-21.7 23.2-48 22.7-76.2-1.4-71.2-60.6-129-133-130-75.5-1.1-137 58.7-137 132.6 0 27.2 8.4 52.6 22.7 73.6l112.3 148.7z" fill="#f00"/><path d="m368.3 284.8-112.3 148.7v-355h2c72.4 1 131.6 58.9 133 130 .5 28.3-7.9 54.5-22.7 76.3z" fill="#c00"/><path d="m356 209.1c0 55.2-44.8 100-100 100s-100-44.8-100-100 44.8-100 100-100 100 44.7 100 100z" fill="#fff"/><path d="m356 209.1c0 55.2-44.8 100-100 100v-200c55.2 0 100 44.7 100 100z" fill="#ebf6fc"/><path d="m256 120.6-80 85.3h20v69.7h45.4v-37.4h29.2v37.4h45.4v-69.7h20z" fill="#ffbf00"/><path d="m336 205.8h-20v69.7h-45.4v-37.4h-14.6v-117.5z" fill="#ebb200"/></svg>