<svg viewBox="0 0 100 100" xmlns="http://www.w3.org/2000/svg"><path d="m50 .67a49.34 49.34 0 0 0 -16.92 95.68l63.27-63.27a49.34 49.34 0 0 0 -46.35-32.41z" fill="#ffae46"/><path d="m96.35 33.08-18.47-18.47-55.76 70.78 11 11a49.36 49.36 0 0 0 63.23-63.31z" fill="#fe843f"/><path d="m45.71 18.9h-4.29v-4.29l2.15-2.14 2.14 2.14z" fill="#fc5a37"/><path d="m22.12 81.1v4.29h27.88l2.15-2.15-2.15-2.14-13.94-2.15z" fill="#7be3ff"/><path d="m22.12 76.81v4.29h27.88l2.15-2.15-2.15-2.14-13.94-2.14z" fill="#e0f8ff"/><path d="m22.12 14.61v62.2h27.88l2.15-31.1-2.15-31.1z" fill="#fff"/><path d="m50 81.1v4.29h27.88v-4.29l-13.94-2.15z" fill="#48d9ff"/><path d="m50 76.81v4.29h27.88v-4.29l-13.94-2.14z" fill="#adeeff"/><path d="m60.72 59.65h17.16v17.16h-17.16z" fill="#7be3ff"/><path d="m50 14.61v62.2h10.72l17.16-17.16v-45.04z" fill="#e0f8ff"/><g fill="#a8cfff"><path d="m34.99 34.18v4.29h15.01l2.15-2.14-2.15-2.15z"/><path d="m34.99 42.76v4.29h15.01l2.15-2.14-2.15-2.15z"/><path d="m34.99 51.34v4.29h15.01l2.15-2.15-2.15-2.14z"/></g><path d="m50 34.18h15.01v4.29h-15.01z" fill="#73a7e6"/><path d="m50 42.76h15.01v4.29h-15.01z" fill="#73a7e6"/><path d="m50 51.34h15.01v4.29h-15.01z" fill="#73a7e6"/><path d="m60.72 59.65v17.16l17.16-17.16z" fill="#adeeff"/><path d="m52.14 29.62a6.44 6.44 0 0 1 -6.43-6.43v-4.29h4.29v4.29a2.15 2.15 0 1 0 4.29 0v-8.58a4.29 4.29 0 0 0 -8.58 0h-4.29a8.58 8.58 0 0 1 17.16 0v8.58a6.44 6.44 0 0 1 -6.44 6.43z" fill="#fc5a37"/></svg>