<svg id="Layer_1" data-name="Layer 1" xmlns="http://www.w3.org/2000/svg" viewBox="0 0 100 100"><defs><style>.cls-1{fill:#ffae46;}.cls-2{fill:#fe843f;}.cls-3{fill:#fc5a37;}.cls-4{fill:#7be3ff;}.cls-5{fill:#e0f8ff;}.cls-6{fill:#fff;}.cls-7{fill:#48d9ff;}.cls-8{fill:#adeeff;}.cls-9{fill:#a8cfff;}.cls-10{fill:#73a7e6;}</style></defs><path class="cls-1" d="M50,.67A49.34,49.34,0,0,0,33.08,96.35L96.35,33.08A49.34,49.34,0,0,0,50,.67Z"/><path class="cls-2" d="M96.35,33.08,77.88,14.61,22.12,85.39l11,11A49.36,49.36,0,0,0,96.35,33.08Z"/><polygon class="cls-3" points="45.71 18.9 41.42 18.9 41.42 14.61 43.57 12.47 45.71 14.61 45.71 18.9"/><polygon class="cls-4" points="22.12 81.1 22.12 85.39 50 85.39 52.15 83.24 50 81.1 36.06 78.95 22.12 81.1"/><polygon class="cls-5" points="22.12 76.81 22.12 81.1 50 81.1 52.15 78.95 50 76.81 36.06 74.67 22.12 76.81"/><polygon class="cls-6" points="22.12 14.61 22.12 76.81 50 76.81 52.15 45.71 50 14.61 22.12 14.61"/><polygon class="cls-7" points="50 81.1 50 85.39 77.88 85.39 77.88 81.1 63.94 78.95 50 81.1"/><polygon class="cls-8" points="50 76.81 50 81.1 77.88 81.1 77.88 76.81 63.94 74.67 50 76.81"/><rect class="cls-4" x="60.72" y="59.65" width="17.16" height="17.16"/><polygon class="cls-5" points="50 14.61 50 76.81 60.72 76.81 77.88 59.65 77.88 14.61 50 14.61"/><polygon class="cls-9" points="34.99 34.18 34.99 38.47 50 38.47 52.15 36.33 50 34.18 34.99 34.18"/><polygon class="cls-9" points="34.99 42.76 34.99 47.05 50 47.05 52.15 44.91 50 42.76 34.99 42.76"/><polygon class="cls-9" points="34.99 51.34 34.99 55.63 50 55.63 52.15 53.48 50 51.34 34.99 51.34"/><rect class="cls-10" x="50" y="34.18" width="15.01" height="4.29"/><rect class="cls-10" x="50" y="42.76" width="15.01" height="4.29"/><rect class="cls-10" x="50" y="51.34" width="15.01" height="4.29"/><polygon class="cls-8" points="60.72 59.65 60.72 76.81 77.88 59.65 60.72 59.65"/><path class="cls-3" d="M52.14,29.62a6.44,6.44,0,0,1-6.43-6.43V18.9H50v4.29a2.15,2.15,0,1,0,4.29,0V14.61a4.29,4.29,0,0,0-8.58,0H41.42a8.58,8.58,0,0,1,17.16,0v8.58A6.44,6.44,0,0,1,52.14,29.62Z"/></svg>