<svg id="Capa_1" enable-background="new 0 0 512 512" height="512" viewBox="0 0 512 512" width="512" xmlns="http://www.w3.org/2000/svg"><g><g><g><g><g><g><g><g><g><circle cx="256" cy="256" fill="#fd5" r="256"/></g></g></g></g></g></g></g></g><path d="m106 381 130.249 130.249c6.518.497 13.105.751 19.751.751 141.385 0 256-114.615 256-256 0-6.646-.254-13.233-.751-19.751l-105.249-105.249z" fill="#edbe00"/><g><path d="m315.531 235.08-59.531 104.336-150-11.342v-197.074h150z" fill="#ff5b5b"/><path d="m406 328.074-150 11.342v-208.416h150z" fill="#c8001c"/><g><path d="m256 381h-150v-53.902h150l29.766 27.354z" fill="#6c67d2"/><path d="m256 327.098h150v53.902h-150z" fill="#534dca"/></g><g><g><path d="m129.036 346.416h253.929v16.071h-253.929z" fill="#e6e6ff"/></g></g><g><path d="m256 346.416h126.964v16.071h-126.964z" fill="#b7b5e9"/></g><circle cx="163.5" cy="354.452" fill="#9cd29a" r="18.571"/><g><path d="m217.899 283.896v-97.632l97.632 48.816z" fill="#fff"/><path d="m256 264.845 59.531-29.765-59.531-29.766z" fill="#e6e6ff"/></g></g></g></svg>