<?xml version="1.0" encoding="iso-8859-1"?>
<!-- Generator: Adobe Illustrator 19.0.0, SVG Export Plug-In . SVG Version: 6.00 Build 0)  -->
<svg version="1.1" id="Layer_1" xmlns="http://www.w3.org/2000/svg" xmlns:xlink="http://www.w3.org/1999/xlink" x="0px" y="0px"
	 viewBox="0 0 512 512" style="enable-background:new 0 0 512 512;" xml:space="preserve">
<circle style="fill:#3A99D7;" cx="256" cy="255.997" r="255.997"/>
<path style="fill:#2682BF;" d="M506.485,309.123C482.052,424.985,379.116,512,256.002,512c-3.153,0-6.306,0-9.458-0.158
	L133.835,399.133l222.897-239.605L506.485,309.28V309.123z"/>
<path style="fill:#F7F7F8;" d="M133.835,113.025h176.395l46.503,46.503v239.605H133.835V113.025z"/>
<path style="fill:#CCCCCC;" d="M310.229,113.025v46.503h46.503L310.229,113.025z"/>
<g>
	<rect x="166.305" y="175.768" style="fill:#E84F4F;" width="150.222" height="14.345"/>
	<rect x="166.305" y="202.405" style="fill:#E84F4F;" width="150.222" height="14.345"/>
	<rect x="166.305" y="228.891" style="fill:#E84F4F;" width="150.222" height="14.345"/>
	<rect x="166.305" y="255.367" style="fill:#E84F4F;" width="150.222" height="14.345"/>
	<rect x="166.305" y="282.013" style="fill:#E84F4F;" width="115.071" height="14.345"/>
	<polygon style="fill:#E84F4F;" points="370.494,232.194 403.311,263.364 318.097,352.818 285.281,321.647 	"/>
</g>
<path style="fill:#FFF094;" d="M285.323,321.576l32.788,31.212l-32.788,14.503l-12.769-12.137L285.323,321.576z"/>
<path style="fill:#F0DD85;" d="M301.559,337.182l16.552,15.606l-32.788,14.503l-6.463-6.148l22.857-23.961L301.559,337.182
	L301.559,337.182z"/>
<path style="fill:#00CC96;" d="M396.14,221.32l17.183,16.236c4.414,4.257,3.468,12.296-1.891,18.128l-7.567,7.882l-0.158,0.158
	l-33.103-31.527l0.158-0.158l7.567-7.882c5.517-5.674,13.556-7.093,17.97-2.838L396.14,221.32L396.14,221.32z"/>
<path style="fill:#12B589;" d="M404.652,229.359l8.67,8.197c4.414,4.257,3.468,12.296-1.891,18.128l-7.567,7.882l-0.158,0.158
	l-16.709-15.764l17.655-18.443V229.359z"/>
<path style="fill:#9D9E9E;" d="M285.323,367.291l-23.015,11.192l10.088-23.33l12.769,12.137h0.158V367.291z"/>
<path style="fill:#727271;" d="M285.323,367.291l-23.015,11.192l16.552-17.34L285.323,367.291z"/>
<g>
</g>
<g>
</g>
<g>
</g>
<g>
</g>
<g>
</g>
<g>
</g>
<g>
</g>
<g>
</g>
<g>
</g>
<g>
</g>
<g>
</g>
<g>
</g>
<g>
</g>
<g>
</g>
<g>
</g>
</svg>
