<?xml version="1.0" encoding="iso-8859-1"?>
<!-- Generator: Adobe Illustrator 19.0.0, SVG Export Plug-In . SVG Version: 6.00 Build 0)  -->
<svg version="1.1" id="Capa_1" xmlns="http://www.w3.org/2000/svg" xmlns:xlink="http://www.w3.org/1999/xlink" x="0px" y="0px"
	 viewBox="0 0 512 512" style="enable-background:new 0 0 512 512;" xml:space="preserve">
<circle style="fill:#F94616;" cx="256" cy="256" r="256"/>
<path style="fill:#DB2C09;" d="M512,256c0-3.373-0.086-6.725-0.215-10.067L368.086,102.234l-263.732,298.12l107.909,107.909
	C226.477,510.71,241.087,512,256,512C397.385,512,512,397.385,512,256z"/>
<path style="fill:#E2F1FC;" d="M256,60c-93.888,0-170,76.112-170,170c0,47.731,19.68,90.86,51.358,121.737L104,400h152
	c93.888,0,170-76.112,170-170S349.888,60,256,60z"/>
<path style="fill:#BADDFA;" d="M256,60c-0.016,0-0.032,0.001-0.048,0.001V400H256c93.888,0,170-76.112,170-170S349.888,60,256,60z"
	/>
<circle style="fill:#1E499E;" cx="256" cy="135.68" r="38.25"/>
<path style="fill:#0E387C;" d="M256,97.431c-0.016,0-0.032,0.001-0.048,0.001v76.502c0.016,0,0.032,0.001,0.048,0.001
	c21.126,0,38.252-17.126,38.252-38.252S277.126,97.431,256,97.431z"/>
<rect x="225.64" y="189.12" style="fill:#1E499E;" width="60.718" height="159.88"/>
<rect x="255.95" y="189.12" style="fill:#0E387C;" width="30.407" height="159.88"/>
<g>
</g>
<g>
</g>
<g>
</g>
<g>
</g>
<g>
</g>
<g>
</g>
<g>
</g>
<g>
</g>
<g>
</g>
<g>
</g>
<g>
</g>
<g>
</g>
<g>
</g>
<g>
</g>
<g>
</g>
</svg>
