<?xml version="1.0" encoding="iso-8859-1"?>
<!-- Generator: Adobe Illustrator 19.0.0, SVG Export Plug-In . SVG Version: 6.00 Build 0)  -->
<svg version="1.1" id="Layer_1" xmlns="http://www.w3.org/2000/svg" xmlns:xlink="http://www.w3.org/1999/xlink" x="0px" y="0px"
	 viewBox="0 0 509.287 509.287" style="enable-background:new 0 0 509.287 509.287;" xml:space="preserve">
<circle style="fill:#FBD303;" cx="254.644" cy="254.644" r="254.644"/>
<path style="fill:#4F5565;" d="M436.048,108.842c0-6.781-5.425-12.207-12.207-12.207H85.446c-6.781,0-12.207,5.425-12.207,12.207
	v41.706h362.808V108.842z"/>
<circle style="fill:#F0582F;" cx="109.181" cy="123.762" r="8.816"/>
<circle style="fill:#FBD303;" cx="138.681" cy="123.762" r="8.816"/>
<circle style="fill:#71D456;" cx="167.841" cy="123.762" r="8.816"/>
<path style="fill:#333842;" d="M373.319,114.946H211.921c-4.747,0-8.816,4.069-8.816,8.816c0,4.747,4.069,8.816,8.816,8.816h161.738
	c4.747,0,8.816-4.069,8.816-8.816C382.135,119.015,378.066,114.946,373.319,114.946z"/>
<path style="fill:#FCFCFD;" d="M73.24,150.887v249.558c0,6.781,5.425,12.207,12.207,12.207H424.18
	c6.781,0,12.207-5.425,12.207-12.207V150.887H73.24z"/>
<rect x="110.877" y="184.456" style="fill:#6EB1E1;" width="93.584" height="193.95"/>
<g>
	<rect x="238.368" y="184.456" style="fill:#DEDEDF;" width="97.653" height="18.31"/>
	<rect x="238.368" y="228.535" style="fill:#DEDEDF;" width="159.703" height="18.31"/>
	<rect x="238.368" y="272.275" style="fill:#DEDEDF;" width="159.703" height="18.31"/>
	<rect x="238.368" y="316.355" style="fill:#DEDEDF;" width="159.703" height="18.31"/>
	<rect x="238.368" y="360.095" style="fill:#DEDEDF;" width="136.646" height="18.31"/>
</g>
<g>
</g>
<g>
</g>
<g>
</g>
<g>
</g>
<g>
</g>
<g>
</g>
<g>
</g>
<g>
</g>
<g>
</g>
<g>
</g>
<g>
</g>
<g>
</g>
<g>
</g>
<g>
</g>
<g>
</g>
</svg>
