<svg enable-background="new 0 0 512 512" viewBox="0 0 512 512" xmlns="http://www.w3.org/2000/svg"><circle cx="256" cy="256" fill="#ffc855" r="256"/><path d="m512 256c0-10.605-.657-21.057-1.91-31.324l-107.288-107.288-293.188 286.64 104.55 104.55c13.616 2.238 27.587 3.422 41.836 3.422 141.385 0 256-114.615 256-256z" fill="#f29f42"/><path d="m432.423 147.009-62.932-62.932-23.335 23.334 16.087 16.087-75.307 75.307 30.759 30.759 75.307-75.307 16.087 16.087z" fill="#dce6d3"/><path d="m400.124 114.71-98.642 98.641 16.213 16.213 75.307-75.307 16.087 16.087 23.334-23.335z" fill="#98b4b6"/><path d="m150.765 290.224h16v134.999h-16z" fill="#fff" transform="matrix(-.7071 -.7071 .7071 -.7071 18.081 722.9357)"/><path d="m156.599 292.646h9.179v134.999h-9.179z" fill="#e0e0e0" transform="matrix(.7071 .7071 -.7071 .7071 301.8719 -8.4931)"/><path d="m183.88 289.117h55.499v31.5h-55.499z" fill="#dce6d3" transform="matrix(-.7071 -.7071 .7071 -.7071 145.7014 670.0858)"/><path d="m206.57 298.514h28.928v31.5h-28.928z" fill="#98b4b6" transform="matrix(.7071 .7071 -.7071 .7071 286.9574 -64.2491)"/><path d="m223.145 151.348h105.999v177.998h-105.999z" fill="#fff" transform="matrix(-.7071 -.7071 .7071 -.7071 301.4565 605.5616)"/><path d="m267.386 169.676h54.179v177.998h-54.179z" fill="#e0e0e0" transform="matrix(.7071 .7071 -.7071 .7071 269.1606 -132.4618)"/><path d="m201.605 239.502h84.689v66.109h-84.689z" fill="#7ae5fe" transform="matrix(-.7071 -.7071 .7071 -.7071 223.7215 637.7827)"/><path d="m236.732 254.05h43.522v66.109h-43.522z" fill="#00bed2" transform="matrix(.7071 .7071 -.7071 .7071 278.7247 -98.691)"/></svg>