<?xml version="1.0" encoding="iso-8859-1"?>
<!-- Generator: Adobe Illustrator 19.0.0, SVG Export Plug-In . SVG Version: 6.00 Build 0)  -->
<svg version="1.1" id="Capa_1" xmlns="http://www.w3.org/2000/svg" xmlns:xlink="http://www.w3.org/1999/xlink" x="0px" y="0px"
	 viewBox="0 0 512 512" style="enable-background:new 0 0 512 512;" xml:space="preserve">
<circle style="fill:#44C4FC;" cx="256" cy="256" r="256"/>
<path style="fill:#29ACE5;" d="M510.882,279.882L373.75,142.75L138.25,421.5l88.869,88.869C236.601,511.434,246.234,512,256,512
	C389.33,512,498.835,410.067,510.882,279.882z"/>
<polygon style="fill:#FFFFFF;" points="321.5,90.5 138.25,90.5 138.25,421.5 373.75,421.5 373.75,142.75 "/>
<polygon style="fill:#EBEEF0;" points="373.75,142.75 321.5,90.5 255.952,90.5 255.952,421.5 373.75,421.5 "/>
<rect x="167.75" y="302.56" style="fill:#DCE6D3;" width="176.5" height="11.375"/>
<rect x="255.95" y="302.56" style="fill:#98B4B6;" width="88.3" height="11.375"/>
<rect x="167.75" y="334.94" style="fill:#DCE6D3;" width="176.5" height="11.375"/>
<rect x="255.95" y="334.94" style="fill:#98B4B6;" width="88.3" height="11.375"/>
<rect x="167.75" y="367.31" style="fill:#DCE6D3;" width="176.5" height="11.375"/>
<g>
	<rect x="255.95" y="367.31" style="fill:#98B4B6;" width="88.3" height="11.375"/>
	<polygon style="fill:#98B4B6;" points="321.5,142.75 373.75,142.75 321.5,90.5 	"/>
</g>
<g>
	<path style="fill:#FFB111;" d="M172.874,256.112v-66.203h44.477v11.282h-31.609v17.063h26.294v10.443h-26.294v27.414h-12.868
		V256.112z"/>
	<path style="fill:#FFB111;" d="M224.629,256.112l26.108-66.203h10.443l26.015,66.203h-13.614l-6.061-16.504h-23.218l-6.061,16.504
		H224.629z M255.958,203.802l-9.511,26.761h18.742L255.958,203.802z"/>
</g>
<g>
	<polygon style="fill:#FF8700;" points="255.958,203.802 265.19,230.563 255.949,230.563 255.949,239.608 267.521,239.608 
		273.581,256.112 287.195,256.112 261.18,189.909 255.958,189.909 	"/>
	<path style="fill:#FF8700;" d="M337.351,251.058c-2.363,1.554-4.927,2.767-7.692,3.636c-2.767,0.87-5.734,1.305-8.905,1.305
		c-4.662,0-8.921-0.963-12.774-2.891c-3.855-1.926-7.165-4.444-9.93-7.553c-2.767-3.108-4.896-6.681-6.387-10.723
		c-1.492-4.04-2.238-8.173-2.238-12.401c0-4.413,0.792-8.64,2.377-12.681c1.585-4.04,3.791-7.614,6.621-10.723
		c2.828-3.107,6.168-5.578,10.023-7.413c3.854-1.833,8.05-2.75,12.588-2.75c4.662,0,8.919,0.979,12.774,2.937
		c3.854,1.958,7.147,4.522,9.884,7.693c2.735,3.17,4.849,6.776,6.34,10.816c1.492,4.042,2.238,8.144,2.238,12.308
		c0,4.228-0.699,8.252-2.098,12.075s-3.403,7.258-6.014,10.303l9.417,10.537H341.36L337.351,251.058z M320.94,244.624
		c3.17,0,6.029-0.777,8.579-2.331l-9.977-11.282h12.215l4.103,4.662c2.299-4.04,3.45-8.453,3.45-13.24
		c0-2.859-0.436-5.625-1.306-8.299c-0.871-2.672-2.098-5.035-3.683-7.086c-1.585-2.051-3.513-3.698-5.781-4.942
		c-2.27-1.243-4.834-1.865-7.693-1.865c-2.984,0-5.61,0.638-7.879,1.912c-2.27,1.275-4.196,2.969-5.781,5.082
		c-1.585,2.114-2.783,4.492-3.59,7.133c-0.809,2.643-1.212,5.331-1.212,8.066c0,2.86,0.419,5.626,1.259,8.299
		c0.839,2.673,2.051,5.035,3.636,7.086c1.585,2.052,3.527,3.699,5.828,4.942C315.407,244.004,318.018,244.624,320.94,244.624z"/>
</g>
<g>
</g>
<g>
</g>
<g>
</g>
<g>
</g>
<g>
</g>
<g>
</g>
<g>
</g>
<g>
</g>
<g>
</g>
<g>
</g>
<g>
</g>
<g>
</g>
<g>
</g>
<g>
</g>
<g>
</g>
</svg>
