<?xml version="1.0"?>
<svg xmlns="http://www.w3.org/2000/svg" xmlns:xlink="http://www.w3.org/1999/xlink" xmlns:svgjs="http://svgjs.com/svgjs" version="1.1" width="512" height="512" x="0" y="0" viewBox="0 0 491.52 491.52" style="enable-background:new 0 0 512 512" xml:space="preserve" class=""><g><link type="text/css" rel="stylesheet" id="dark-mode-custom-link"/><link type="text/css" rel="stylesheet" id="dark-mode-general-link"/><style lang="en" type="text/css" id="dark-mode-custom-style"/><style lang="en" type="text/css" id="dark-mode-native-style"/>
<circle xmlns="http://www.w3.org/2000/svg" style="" cx="245.76" cy="245.76" r="245.76" fill="#46f7d5" data-original="#45b39c" class=""/>
<path xmlns="http://www.w3.org/2000/svg" style="" d="M385.331,107.353c-1.075-1.485-2.816-2.406-4.762-2.406H233.216  c-3.328,0-5.99,2.714-5.99,5.99v54.375l-56.781-56.73l-0.154-0.205l-1.536-1.485c-2.253-1.791-5.274-2.405-8.09-1.535  c-3.328,0.972-7.629,2.355-12.339,4.095c-2.714,0.973-5.581,2.1-8.448,3.38c-14.592,6.246-30.106,15.617-33.024,27.75  c-12.8,53.3,40.653,158.158,97.741,212.48l124.056,124.09C423.588,443.138,491.52,352.396,491.52,245.76  c0-11.779-0.881-23.348-2.483-34.684L385.536,107.609L385.331,107.353z" fill="#2ad1b5" data-original="#000000" class=""/>
<g xmlns="http://www.w3.org/2000/svg">
	<path style="" d="M313.081,354.107c2.834-2.985,3.284-7.511,1.135-11.021l-34.472-56.27   c-2.912-4.754-9.348-5.815-13.623-2.238c-2.109,1.764-4.543,3.679-7.128,5.546l44.803,73.135   C307.495,359.838,310.698,356.618,313.081,354.107z" fill="#64798a" data-original="#64798a" class=""/>
	<path style="" d="M201.289,178.751c5.129-2.185,7.107-8.399,4.195-13.153l-34.472-56.272   c-2.149-3.508-6.386-5.162-10.333-3.994c-3.318,0.983-7.643,2.372-12.371,4.114l44.803,73.136   C195.948,181.127,198.759,179.829,201.289,178.751z" fill="#64798a" data-original="#64798a" class=""/>
	<path style="" d="M237.414,299.885c-42.138,0.89-82.734-65.378-62.8-102.513c2.02-3.762,6.067-7.246,10.733-10.305   l-45.486-74.25c-14.582,6.278-30.065,15.615-32.981,27.758c-16.809,69.971,80.395,228.644,150.366,245.453   c12.143,2.917,27.493-6.636,39.711-16.774l-45.486-74.25C246.625,297.771,241.683,299.794,237.414,299.885z" fill="#64798a" data-original="#64798a" class=""/>
</g>
<g xmlns="http://www.w3.org/2000/svg">
	<path style="" d="M251.47,295.004l45.486,74.25c2.423-2.012,4.713-4.029,6.839-5.995l-44.803-73.135   C256.587,291.862,254.048,293.532,251.47,295.004z" fill="#3a556a" data-original="#3a556a" class=""/>
	<path style="" d="M193.111,182.582l-44.803-73.136c-2.716,1.001-5.554,2.124-8.447,3.37l45.486,74.25   C187.829,185.439,190.47,183.936,193.111,182.582z" fill="#3a556a" data-original="#3a556a" class=""/>
</g>
<path xmlns="http://www.w3.org/2000/svg" style="" d="M380.566,104.96H233.214c-3.311,0-5.994,2.684-5.994,5.994v115.009c0,3.31,2.683,5.994,5.994,5.994  h10.957v27.319c0,4.454,5.385,6.684,8.535,3.535l30.854-30.854h97.007c3.311,0,5.994-2.683,5.994-5.994V110.953  C386.56,107.643,383.877,104.96,380.566,104.96z" fill="#e56353" data-original="#e56353" class=""/>
<polygon xmlns="http://www.w3.org/2000/svg" style="" points="325.827,120.569 325.827,157.259 287.953,157.259 287.953,120.569 265.229,120.569   265.229,216.673 287.953,216.673 287.953,179.983 325.827,179.983 325.827,216.673 348.551,216.673 348.551,120.569 " fill="#ffffff" data-original="#ffffff" class=""/>
<g xmlns="http://www.w3.org/2000/svg">
</g>
<g xmlns="http://www.w3.org/2000/svg">
</g>
<g xmlns="http://www.w3.org/2000/svg">
</g>
<g xmlns="http://www.w3.org/2000/svg">
</g>
<g xmlns="http://www.w3.org/2000/svg">
</g>
<g xmlns="http://www.w3.org/2000/svg">
</g>
<g xmlns="http://www.w3.org/2000/svg">
</g>
<g xmlns="http://www.w3.org/2000/svg">
</g>
<g xmlns="http://www.w3.org/2000/svg">
</g>
<g xmlns="http://www.w3.org/2000/svg">
</g>
<g xmlns="http://www.w3.org/2000/svg">
</g>
<g xmlns="http://www.w3.org/2000/svg">
</g>
<g xmlns="http://www.w3.org/2000/svg">
</g>
<g xmlns="http://www.w3.org/2000/svg">
</g>
<g xmlns="http://www.w3.org/2000/svg">
</g>
</g></svg>
